<svg width="189" height="63" viewBox="0 0 189 63" fill="none" xmlns="http://www.w3.org/2000/svg">
<rect width="188.16" height="62.7199" rx="10" fill="black"/>
<path d="M37.8427 30.3931C37.8591 29.0899 38.197 27.8121 38.8249 26.6786C39.4528 25.5452 40.3504 24.5928 41.4341 23.9103C40.7457 22.9029 39.8374 22.074 38.7816 21.4892C37.7257 20.9043 36.5513 20.5798 35.3516 20.5414C32.7924 20.2662 30.3114 22.1103 29.0073 22.1103C27.678 22.1103 25.6701 20.5687 23.5079 20.6143C22.1094 20.6606 20.7464 21.0772 19.5518 21.8236C18.3572 22.57 17.3716 23.6208 16.6912 24.8734C13.7439 30.1015 15.9423 37.785 18.7657 42.011C20.1783 44.0803 21.8292 46.3918 23.9894 46.3099C26.1033 46.22 26.8928 44.9289 29.4444 44.9289C31.9723 44.9289 32.713 46.3099 34.9171 46.2577C37.1854 46.22 38.6145 44.1792 39.9776 42.0903C40.9925 40.6158 41.7735 38.9862 42.2916 37.2618C40.9738 36.6907 39.8492 35.7349 39.0581 34.5135C38.2669 33.292 37.8442 31.859 37.8427 30.3931Z" fill="white"/>
<path d="M33.6797 17.7621C34.9165 16.241 35.5258 14.2859 35.3783 12.312C33.4888 12.5153 31.7434 13.4405 30.4899 14.9032C29.8771 15.6178 29.4077 16.4491 29.1086 17.3496C28.8095 18.2502 28.6866 19.2023 28.7469 20.1515C29.692 20.1615 30.627 19.9516 31.4814 19.5377C32.3359 19.1238 33.0875 18.5167 33.6797 17.7621Z" fill="white"/>
<path d="M57.3232 15.137H59.8776C60.9695 15.137 61.7884 15.4516 62.3344 16.0807C62.8839 16.7098 63.1587 17.6263 63.1587 18.8303C63.1587 20.0343 62.8839 20.9545 62.3344 21.5908C61.7848 22.2235 60.9659 22.5399 59.8776 22.5399H57.3232V15.137ZM58.5543 16.1729V21.504H59.742C60.4724 21.504 61.0129 21.2835 61.3636 20.8424C61.7179 20.4013 61.8951 19.736 61.8951 18.8466C61.8951 17.9499 61.7179 17.281 61.3636 16.8399C61.0093 16.3952 60.4687 16.1729 59.742 16.1729H58.5543Z" fill="white"/>
<path d="M67.0527 16.7098C67.812 16.7098 68.4248 16.9412 68.8912 17.404C69.3613 17.8668 69.5963 18.4959 69.5963 19.2913V20.0343C69.5963 20.8514 69.3631 21.4896 68.8967 21.9488C68.4302 22.4079 67.8156 22.6375 67.0527 22.6375C66.279 22.6375 65.6589 22.4097 65.1925 21.9542C64.7297 21.4986 64.4983 20.8605 64.4983 20.0397V19.2967C64.4983 18.5194 64.7351 17.8939 65.2088 17.4202C65.6824 16.9466 66.2971 16.7098 67.0527 16.7098ZM67.0581 17.6806C66.6387 17.6806 66.3097 17.8378 66.0711 18.1524C65.8325 18.4633 65.7131 18.8647 65.7131 19.3564V19.9963C65.7131 20.4953 65.8288 20.8984 66.0602 21.2058C66.2952 21.5131 66.6279 21.6667 67.0581 21.6667C67.4848 21.6667 67.812 21.5131 68.0398 21.2058C68.2712 20.8984 68.3869 20.4953 68.3869 19.9963V19.3564C68.3869 18.8611 68.2694 18.4579 68.0343 18.147C67.7993 17.836 67.4739 17.6806 67.0581 17.6806Z" fill="white"/>
<path d="M78.4364 16.8074L76.9287 22.5399H75.703L74.5044 18.3097H74.4719L73.295 22.5399H72.0639L70.4911 16.8074H71.7873L72.7093 21.1786H72.7635L73.9187 16.8074H75.0522L76.2399 21.1786H76.2941L77.2324 16.8074H78.4364Z" fill="white"/>
<path d="M79.6295 22.5399V16.8074H80.8118V17.8378H80.8715C80.904 17.7366 80.9438 17.6408 80.9908 17.5504C81.0414 17.4564 81.1137 17.357 81.2077 17.2521C81.3017 17.1473 81.4084 17.0587 81.5277 16.9864C81.647 16.9104 81.7989 16.8472 81.9833 16.7966C82.1713 16.7459 82.3755 16.7206 82.5961 16.7206C83.1927 16.7206 83.6627 16.8869 84.0062 17.2196C84.3533 17.5486 84.5268 18.0313 84.5268 18.6676V22.5399H83.3228V19.0201C83.3228 18.5971 83.2216 18.2789 83.0191 18.0656C82.8166 17.8523 82.5401 17.7456 82.1893 17.7456C81.7591 17.7456 81.4246 17.8939 81.186 18.1904C80.951 18.4868 80.8335 18.8755 80.8335 19.3564V22.5399H79.6295Z" fill="white"/>
<path d="M86.3491 22.5399V14.7465H87.5531V22.5399H86.3491Z" fill="white"/>
<path d="M91.6857 16.7098C92.4449 16.7098 93.0578 16.9412 93.5242 17.404C93.9942 17.8668 94.2292 18.4959 94.2292 19.2913V20.0343C94.2292 20.8514 93.996 21.4896 93.5296 21.9488C93.0632 22.4079 92.4486 22.6375 91.6857 22.6375C90.9119 22.6375 90.2919 22.4097 89.8255 21.9542C89.3627 21.4986 89.1313 20.8605 89.1313 20.0397V19.2967C89.1313 18.5194 89.3681 17.8939 89.8417 17.4202C90.3154 16.9466 90.93 16.7098 91.6857 16.7098ZM91.6911 17.6806C91.2717 17.6806 90.9427 17.8378 90.704 18.1524C90.4654 18.4633 90.3461 18.8647 90.3461 19.3564V19.9963C90.3461 20.4953 90.4618 20.8984 90.6932 21.2058C90.9282 21.5131 91.2608 21.6667 91.6911 21.6667C92.1177 21.6667 92.4449 21.5131 92.6727 21.2058C92.9041 20.8984 93.0198 20.4953 93.0198 19.9963V19.3564C93.0198 18.8611 92.9023 18.4579 92.6673 18.147C92.4323 17.836 92.1069 17.6806 91.6911 17.6806Z" fill="white"/>
<path d="M97.3477 22.6267C96.7873 22.6267 96.3335 22.4676 95.9864 22.1494C95.6429 21.8313 95.4712 21.4064 95.4712 20.8749C95.4712 20.3579 95.6465 19.9457 95.9972 19.6384C96.3516 19.3311 96.8523 19.1774 97.4995 19.1774H98.9476V18.6405C98.9476 18.3187 98.8517 18.0783 98.6601 17.9192C98.4721 17.7565 98.2082 17.6751 97.8683 17.6751C97.2826 17.6751 96.9373 17.8921 96.8324 18.3259H95.6881C95.7243 17.8306 95.9286 17.4401 96.301 17.1545C96.677 16.8653 97.2121 16.7206 97.9063 16.7206C98.2244 16.7206 98.5137 16.7568 98.774 16.8291C99.038 16.8978 99.2748 17.0063 99.4845 17.1545C99.6942 17.2991 99.8569 17.4998 99.9726 17.7565C100.088 18.0096 100.146 18.3097 100.146 18.6568V22.5399H99.0018V21.7969H98.9476C98.8066 22.0428 98.6023 22.2434 98.3347 22.3989C98.0708 22.5508 97.7418 22.6267 97.3477 22.6267ZM97.7219 21.6939C98.0654 21.6939 98.3546 21.5908 98.5896 21.3847C98.8282 21.175 98.9476 20.9147 98.9476 20.6038V19.9855H97.6893C97.3531 19.9855 97.1 20.0614 96.9301 20.2133C96.7638 20.3651 96.6806 20.5658 96.6806 20.8153C96.6806 21.0973 96.78 21.3142 96.9789 21.4661C97.1814 21.6179 97.429 21.6939 97.7219 21.6939Z" fill="white"/>
<path d="M103.856 16.7315C104.257 16.7315 104.604 16.8146 104.897 16.981C105.19 17.1473 105.392 17.3769 105.504 17.6697H105.564V14.7465H106.768V22.5399H105.597V21.6234H105.537C105.45 21.9162 105.25 22.1548 104.935 22.3392C104.62 22.5236 104.255 22.6158 103.839 22.6158C103.178 22.6158 102.65 22.3953 102.256 21.9542C101.862 21.5131 101.665 20.9165 101.665 20.1645V19.1828C101.665 18.4308 101.864 17.8342 102.261 17.3931C102.663 16.952 103.194 16.7315 103.856 16.7315ZM104.192 17.7185C103.787 17.7185 103.469 17.8632 103.237 18.1524C103.006 18.438 102.89 18.8394 102.89 19.3564V19.9855C102.89 20.5061 103.008 20.9111 103.243 21.2003C103.478 21.486 103.803 21.6288 104.219 21.6288C104.628 21.6288 104.953 21.4896 105.195 21.2112C105.441 20.9292 105.564 20.5459 105.564 20.0614V19.1937C105.564 18.7562 105.436 18.4019 105.179 18.1307C104.922 17.8559 104.593 17.7185 104.192 17.7185Z" fill="white"/>
<path d="M113.379 16.7098C114.138 16.7098 114.751 16.9412 115.218 17.404C115.688 17.8668 115.923 18.4959 115.923 19.2913V20.0343C115.923 20.8514 115.69 21.4896 115.223 21.9488C114.757 22.4079 114.142 22.6375 113.379 22.6375C112.605 22.6375 111.985 22.4097 111.519 21.9542C111.056 21.4986 110.825 20.8605 110.825 20.0397V19.2967C110.825 18.5194 111.062 17.8939 111.535 17.4202C112.009 16.9466 112.624 16.7098 113.379 16.7098ZM113.385 17.6806C112.965 17.6806 112.636 17.8378 112.398 18.1524C112.159 18.4633 112.04 18.8647 112.04 19.3564V19.9963C112.04 20.4953 112.155 20.8984 112.387 21.2058C112.622 21.5131 112.954 21.6667 113.385 21.6667C113.811 21.6667 114.138 21.5131 114.366 21.2058C114.598 20.8984 114.713 20.4953 114.713 19.9963V19.3564C114.713 18.8611 114.596 18.4579 114.361 18.147C114.126 17.836 113.8 17.6806 113.385 17.6806Z" fill="white"/>
<path d="M117.474 22.5399V16.8074H118.656V17.8378H118.716C118.748 17.7366 118.788 17.6408 118.835 17.5504C118.886 17.4564 118.958 17.357 119.052 17.2521C119.146 17.1473 119.253 17.0587 119.372 16.9864C119.491 16.9104 119.643 16.8472 119.828 16.7966C120.016 16.7459 120.22 16.7206 120.44 16.7206C121.037 16.7206 121.507 16.8869 121.85 17.2196C122.198 17.5486 122.371 18.0313 122.371 18.6676V22.5399H121.167V19.0201C121.167 18.5971 121.066 18.2789 120.863 18.0656C120.661 17.8523 120.384 17.7456 120.034 17.7456C119.603 17.7456 119.269 17.8939 119.03 18.1904C118.795 18.4868 118.678 18.8755 118.678 19.3564V22.5399H117.474Z" fill="white"/>
<path d="M127.03 16.8454V15.4136H128.207V16.8454H129.492V17.789H128.207V20.8315C128.207 21.1389 128.27 21.3486 128.396 21.4607C128.527 21.5727 128.756 21.6288 129.085 21.6288C129.277 21.6288 129.434 21.6215 129.557 21.6071V22.5291C129.362 22.5616 129.105 22.5779 128.787 22.5779C128.111 22.5779 127.646 22.4531 127.393 22.2037C127.14 21.9506 127.014 21.5257 127.014 20.9292V17.789H126.14V16.8454H127.03Z" fill="white"/>
<path d="M131.011 22.5399V14.7465H132.209V17.8378H132.269C132.305 17.7221 132.361 17.6064 132.437 17.4907C132.513 17.3714 132.616 17.2521 132.746 17.1328C132.88 17.0099 133.055 16.9104 133.272 16.8345C133.493 16.7586 133.738 16.7206 134.01 16.7206C134.588 16.7206 135.051 16.8888 135.398 17.225C135.749 17.5576 135.924 18.0403 135.924 18.673V22.5399H134.726V19.0256C134.726 18.6025 134.619 18.2844 134.406 18.071C134.196 17.8541 133.914 17.7456 133.56 17.7456C133.136 17.7456 132.806 17.8957 132.567 18.1958C132.328 18.4923 132.209 18.8791 132.209 19.3564V22.5399H131.011Z" fill="white"/>
<path d="M139.965 22.6375C139.18 22.6375 138.562 22.4097 138.11 21.9542C137.658 21.4986 137.432 20.8677 137.432 20.0614V19.2859C137.432 18.4905 137.661 17.8632 138.121 17.404C138.583 16.9412 139.175 16.7098 139.894 16.7098C140.621 16.7098 141.21 16.9448 141.662 17.4148C142.118 17.8812 142.345 18.5049 142.345 19.2859V19.9584H138.625V20.2404C138.625 20.6634 138.744 21.0087 138.983 21.2763C139.222 21.5402 139.547 21.6722 139.959 21.6722C140.263 21.6722 140.518 21.6089 140.724 21.4823C140.934 21.3558 141.06 21.2003 141.103 21.0159H142.28C142.262 21.1931 142.203 21.3721 142.101 21.5529C142 21.7336 141.859 21.9072 141.678 22.0735C141.501 22.2398 141.263 22.3754 140.962 22.4803C140.662 22.5851 140.33 22.6375 139.965 22.6375ZM138.625 19.172H141.169V19.0961C141.169 18.6658 141.053 18.3187 140.821 18.0548C140.59 17.7908 140.283 17.6589 139.899 17.6589C139.516 17.6589 139.207 17.7908 138.972 18.0548C138.741 18.3187 138.625 18.6658 138.625 19.0961V19.172Z" fill="white"/>
<path d="M59.8287 43.9393H57.3231L62.4211 29.1335H65.1762L70.2633 43.9393H67.6601L66.3476 39.8392H61.152L59.8287 43.9393ZM63.8095 31.6933H63.7119L61.7052 37.9519H65.7944L63.8095 31.6933Z" fill="white"/>
<path d="M77.1784 44.102C76.4552 44.102 75.8153 43.9465 75.2585 43.6356C74.7017 43.3174 74.2678 42.8872 73.9569 42.3448H73.8701V47.7465H71.4621V32.4743H73.805V34.1556H73.8918C74.2172 33.5915 74.6655 33.1468 75.2368 32.8214C75.8153 32.4888 76.4805 32.3225 77.2326 32.3225C78.5487 32.3225 79.6116 32.7997 80.4215 33.7542C81.2314 34.7015 81.6364 36.014 81.6364 37.6916V38.7112C81.6364 40.3888 81.2278 41.7085 80.4107 42.6702C79.6008 43.6248 78.5233 44.102 77.1784 44.102ZM76.6252 42.1171C77.4061 42.1171 78.028 41.8097 78.4908 41.1951C78.9608 40.5804 79.1958 39.7091 79.1958 38.581V37.7784C79.1958 36.672 78.9644 35.8151 78.5017 35.2077C78.0461 34.593 77.4061 34.2857 76.5818 34.2857C75.743 34.2857 75.0777 34.6003 74.586 35.2294C74.0943 35.8585 73.8484 36.7045 73.8484 37.7675V38.581C73.8484 39.6657 74.0979 40.5262 74.5968 41.1625C75.0958 41.7989 75.7719 42.1171 76.6252 42.1171Z" fill="white"/>
<path d="M89.4192 44.102C88.6961 44.102 88.0561 43.9465 87.4993 43.6356C86.9425 43.3174 86.5086 42.8872 86.1977 42.3448H86.1109V47.7465H83.7029V32.4743H86.0458V34.1556H86.1326C86.458 33.5915 86.9063 33.1468 87.4776 32.8214C88.0561 32.4888 88.7214 32.3225 89.4734 32.3225C90.7895 32.3225 91.8525 32.7997 92.6623 33.7542C93.4722 34.7015 93.8772 36.014 93.8772 37.6916V38.7112C93.8772 40.3888 93.4686 41.7085 92.6515 42.6702C91.8416 43.6248 90.7642 44.102 89.4192 44.102ZM88.866 42.1171C89.6469 42.1171 90.2688 41.8097 90.7316 41.1951C91.2017 40.5804 91.4367 39.7091 91.4367 38.581V37.7784C91.4367 36.672 91.2053 35.8151 90.7425 35.2077C90.2869 34.593 89.6469 34.2857 88.8226 34.2857C87.9838 34.2857 87.3185 34.6003 86.8268 35.2294C86.3351 35.8585 86.0892 36.7045 86.0892 37.7675V38.581C86.0892 39.6657 86.3387 40.5262 86.8376 41.1625C87.3366 41.7989 88.0127 42.1171 88.866 42.1171Z" fill="white"/>
<path d="M98.8672 39.8284H101.275C101.333 40.5081 101.651 41.0758 102.23 41.5313C102.815 41.9797 103.607 42.2038 104.605 42.2038C105.56 42.2038 106.308 41.9977 106.85 41.5856C107.393 41.1662 107.664 40.6057 107.664 39.9043C107.664 39.3475 107.476 38.9064 107.1 38.581C106.724 38.2484 106.131 37.9845 105.321 37.7892L102.891 37.1818C102.385 37.0661 101.926 36.907 101.514 36.7045C101.102 36.5021 100.722 36.2454 100.375 35.9344C100.028 35.6162 99.7566 35.2258 99.5614 34.763C99.3662 34.2929 99.2685 33.7687 99.2685 33.1902C99.2685 32.2791 99.5144 31.4873 100.006 30.8148C100.505 30.135 101.152 29.6325 101.948 29.3071C102.75 28.9744 103.64 28.8081 104.616 28.8081C106.113 28.8081 107.367 29.195 108.38 29.9687C109.392 30.7352 109.913 31.7873 109.942 33.1251H107.577C107.519 32.4526 107.234 31.903 106.72 31.4764C106.214 31.0425 105.502 30.8256 104.583 30.8256C103.723 30.8256 103.032 31.0208 102.512 31.4113C101.998 31.7946 101.742 32.3261 101.742 33.0058C101.742 34.0109 102.425 34.669 103.792 34.9799L106.21 35.5765C106.803 35.7211 107.324 35.8983 107.772 36.108C108.221 36.3104 108.629 36.5708 108.998 36.8889C109.367 37.2071 109.645 37.6012 109.833 38.0712C110.029 38.5413 110.126 39.08 110.126 39.6874C110.126 41.1119 109.602 42.2255 108.553 43.0282C107.512 43.8308 106.135 44.2322 104.421 44.2322C103.625 44.2322 102.906 44.1418 102.262 43.961C101.626 43.7802 101.102 43.5452 100.689 43.256C100.285 42.9667 99.941 42.6269 99.659 42.2364C99.3842 41.8459 99.1854 41.4518 99.0625 41.0541C98.9468 40.6564 98.8817 40.2478 98.8672 39.8284Z" fill="white"/>
<path d="M113.06 32.4743V29.6867H115.425V32.4743H117.659V34.405H115.425V40.5226C115.425 41.1372 115.552 41.5566 115.805 41.7808C116.065 42.005 116.524 42.1171 117.182 42.1171C117.45 42.1171 117.631 42.1098 117.725 42.0954V43.9393C117.421 43.9899 117.041 44.0152 116.586 44.0152C115.66 44.0152 114.937 43.8959 114.416 43.6573C113.896 43.4187 113.534 43.068 113.332 42.6052C113.129 42.1424 113.028 41.5133 113.028 40.7178V34.405H111.444V32.4743H113.06Z" fill="white"/>
<path d="M120.399 33.7976C121.302 32.7852 122.557 32.2791 124.162 32.2791C125.768 32.2791 127.015 32.7852 127.904 33.7976C128.801 34.8027 129.249 36.1116 129.249 37.7241V38.6461C129.249 40.302 128.805 41.6326 127.915 42.6377C127.033 43.6356 125.782 44.1346 124.162 44.1346C122.543 44.1346 121.284 43.6356 120.388 42.6377C119.498 41.6326 119.054 40.302 119.054 38.6461V37.7241C119.054 36.1188 119.502 34.81 120.399 33.7976ZM126.147 35.1751C125.692 34.5316 125.03 34.2098 124.162 34.2098C123.295 34.2098 122.629 34.5316 122.167 35.1751C121.711 35.8187 121.483 36.6792 121.483 37.7567V38.6353C121.483 39.7055 121.711 40.566 122.167 41.2168C122.629 41.8676 123.295 42.193 124.162 42.193C125.03 42.193 125.692 41.8676 126.147 41.2168C126.603 40.566 126.831 39.7055 126.831 38.6353V37.7567C126.831 36.672 126.603 35.8115 126.147 35.1751Z" fill="white"/>
<path d="M131.284 43.9393V32.4743H133.691V33.982H133.778C133.959 33.5481 134.281 33.1613 134.744 32.8214C135.206 32.4815 135.799 32.3116 136.522 32.3116C136.841 32.3116 137.112 32.3333 137.336 32.3767V34.5026C137.119 34.4448 136.776 34.4159 136.306 34.4159C135.394 34.4159 134.736 34.6617 134.331 35.1535C133.926 35.6452 133.724 36.3104 133.724 37.1493V43.9393H131.284Z" fill="white"/>
<path d="M143.177 44.1346C141.637 44.1346 140.415 43.6537 139.511 42.6919C138.607 41.723 138.155 40.396 138.155 38.7112V37.5506C138.155 35.9453 138.6 34.6653 139.489 33.7108C140.379 32.7563 141.576 32.2791 143.08 32.2791C144.598 32.2791 145.795 32.7672 146.67 33.7434C147.545 34.7196 147.982 36.0248 147.982 37.659V38.7546H140.531V39.0257C140.531 39.9947 140.773 40.7721 141.257 41.3578C141.742 41.9435 142.393 42.2364 143.21 42.2364C143.817 42.2364 144.323 42.0954 144.728 41.8134C145.133 41.5313 145.412 41.1409 145.564 40.6419H147.852C147.664 41.647 147.172 42.4822 146.377 43.1475C145.582 43.8055 144.515 44.1346 143.177 44.1346ZM140.531 37.0733H145.629V37.0516C145.629 36.22 145.394 35.5295 144.924 34.9799C144.454 34.4231 143.842 34.1447 143.09 34.1447C142.331 34.1447 141.713 34.4231 141.236 34.9799C140.766 35.5295 140.531 36.22 140.531 37.0516V37.0733Z" fill="white"/>
</svg>
