<svg width="71" height="71" viewBox="0 0 71 71" fill="none" xmlns="http://www.w3.org/2000/svg">
<rect opacity="0.08" width="70.0579" height="70.0579" rx="35.0289" fill="#6656FF"/>
<path d="M25.4788 23.7422C23.2438 23.7422 21.2526 24.6768 19.7491 26.1397C18.2862 27.6026 17.3516 29.5938 17.3516 31.8694C17.3516 34.1044 18.2862 36.0956 19.7491 37.5991L33.606 51.456L47.4629 37.5991C48.9258 36.1362 49.8604 34.145 49.8604 31.8694C49.8604 29.6344 48.9258 27.6432 47.4629 26.1397C46 24.6768 44.0088 23.7422 41.7332 23.7422C39.4982 23.7422 37.5071 24.6768 36.0035 26.1397C34.5406 27.6026 33.606 29.5938 33.606 31.8694C33.606 29.6344 32.6714 27.6432 31.2085 26.1397C29.7456 24.6768 27.7544 23.7422 25.4788 23.7422Z" fill="#3200AA"/>
</svg>
