<svg width="57" height="55" viewBox="0 0 57 55" fill="none" xmlns="http://www.w3.org/2000/svg">
<g filter="url(#filter0_d_4315_183)">
<rect x="13.8064" y="6.90332" width="28.7045" height="26.5411" rx="5.91703" fill="url(#paint0_linear_4315_183)" shape-rendering="crispEdges"/>
</g>
<g clip-path="url(#clip0_4315_183)">
<path d="M28.1595 16.5552C27.5287 16.5672 26.9235 16.7883 26.4543 17.1784C25.9851 17.5685 25.6831 18.1014 25.6034 18.6802C25.5236 19.2589 25.6715 19.8448 26.0199 20.3312C26.3684 20.8176 26.8943 21.172 27.5017 21.3298V28.1116C27.5017 28.2729 27.571 28.4277 27.6944 28.5417C27.8177 28.6558 27.985 28.7199 28.1595 28.7199C28.334 28.7199 28.5013 28.6558 28.6246 28.5417C28.748 28.4277 28.8173 28.2729 28.8173 28.1116V21.3298C29.4248 21.172 29.9506 20.8176 30.2991 20.3312C30.6475 19.8448 30.7954 19.2589 30.7156 18.6802C30.6359 18.1014 30.3339 17.5685 29.8647 17.1784C29.3955 16.7883 28.7903 16.5672 28.1595 16.5552Z" fill="#F6CA49"/>
<path d="M32.8952 13.9395C32.7619 13.8567 32.6005 13.8219 32.4414 13.8415C32.2823 13.8612 32.1365 13.9339 32.0314 14.0461C31.9262 14.1582 31.8691 14.302 31.8707 14.4504C31.8723 14.5989 31.9325 14.7416 32.04 14.8518C32.681 15.3657 33.1951 16.0009 33.5474 16.7145C33.8997 17.4281 34.082 18.2034 34.082 18.9878C34.082 19.7722 33.8997 20.5475 33.5474 21.2611C33.1951 21.9747 32.681 22.6099 32.04 23.1238C31.9626 23.1718 31.8972 23.2345 31.848 23.3077C31.7988 23.3809 31.767 23.4629 31.7547 23.5483C31.7423 23.6337 31.7498 23.7205 31.7765 23.8031C31.8032 23.8856 31.8486 23.962 31.9096 24.0271C31.9706 24.0922 32.0459 24.1446 32.1305 24.1808C32.2151 24.217 32.307 24.2361 32.4002 24.237C32.4934 24.2378 32.5857 24.2204 32.671 24.1857C32.7563 24.1511 32.8328 24.1001 32.8952 24.0361C33.6761 23.4081 34.3023 22.6325 34.7314 21.7616C35.1605 20.8907 35.3825 19.9448 35.3825 18.9878C35.3825 18.0308 35.1605 17.0849 34.7314 16.214C34.3023 15.3431 33.6761 14.5675 32.8952 13.9395ZM22.2386 18.9878C22.2383 18.2036 22.4202 17.4284 22.772 16.7148C23.1238 16.0013 23.6373 15.3659 24.2778 14.8518C24.3853 14.7416 24.4456 14.5989 24.4471 14.4504C24.4487 14.302 24.3916 14.1582 24.2865 14.0461C24.1813 13.9339 24.0355 13.8612 23.8764 13.8415C23.7173 13.8219 23.5559 13.8567 23.4227 13.9395C22.6417 14.5675 22.0155 15.3431 21.5864 16.214C21.1573 17.0849 20.9353 18.0308 20.9353 18.9878C20.9353 19.9448 21.1573 20.8907 21.5864 21.7616C22.0155 22.6325 22.6417 23.4081 23.4227 24.0361C23.5559 24.1189 23.7173 24.1537 23.8764 24.1341C24.0355 24.1144 24.1813 24.0417 24.2865 23.9295C24.3916 23.8174 24.4487 23.6736 24.4471 23.5252C24.4456 23.3767 24.3853 23.234 24.2778 23.1238C23.6373 22.6097 23.1238 21.9743 22.772 21.2608C22.4202 20.5472 22.2383 19.772 22.2386 18.9878Z" fill="#F6CA49"/>
<path d="M35.2312 11.7803C35.1665 11.7264 35.0908 11.6848 35.0086 11.658C34.9265 11.6311 34.8394 11.6194 34.7523 11.6237C34.6653 11.6279 34.58 11.6479 34.5013 11.6826C34.4227 11.7174 34.3522 11.7661 34.2939 11.826C34.2356 11.8859 34.1906 11.9558 34.1615 12.0318C34.1324 12.1078 34.1198 12.1883 34.1244 12.2688C34.129 12.3493 34.1507 12.4281 34.1882 12.5009C34.2257 12.5736 34.2784 12.6388 34.3432 12.6927C35.2907 13.4907 36.0477 14.4628 36.5656 15.5468C37.0835 16.6308 37.3511 17.8029 37.3511 18.9879C37.3511 20.173 37.0835 21.345 36.5656 22.429C36.0477 23.513 35.2907 24.4851 34.3432 25.2832C34.2784 25.3371 34.2257 25.4023 34.1882 25.475C34.1507 25.5477 34.129 25.6266 34.1244 25.7071C34.1198 25.7876 34.1324 25.8681 34.1615 25.9441C34.1906 26.02 34.2356 26.09 34.2939 26.1499C34.3522 26.2098 34.4227 26.2585 34.5013 26.2932C34.58 26.3279 34.6653 26.348 34.7523 26.3522C34.8394 26.3564 34.9265 26.3448 35.0086 26.3179C35.0908 26.291 35.1665 26.2494 35.2312 26.1955C36.3134 25.2835 37.1778 24.1728 37.7693 22.9344C38.3607 21.6959 38.6662 20.357 38.6662 19.0031C38.6662 17.6493 38.3607 16.3104 37.7693 15.0719C37.1778 13.8335 36.3134 12.7227 35.2312 11.8108V11.7803ZM18.9504 18.9879C18.9547 17.8019 19.226 16.6297 19.7469 15.5459C20.2679 14.4621 21.0271 13.4904 21.9763 12.6927C22.1072 12.5838 22.1859 12.4313 22.1951 12.2688C22.2044 12.1062 22.1434 11.947 22.0257 11.826C21.9079 11.705 21.743 11.6322 21.5672 11.6237C21.3914 11.6151 21.2191 11.6715 21.0883 11.7803C20.0062 12.6923 19.1417 13.8031 18.5503 15.0415C17.9588 16.28 17.6533 17.6189 17.6533 18.9727C17.6533 20.3266 17.9588 21.6655 18.5503 22.9039C19.1417 24.1424 20.0062 25.2531 21.0883 26.1651C21.1531 26.219 21.2287 26.2606 21.3109 26.2875C21.3931 26.3144 21.4802 26.326 21.5672 26.3218C21.6542 26.3176 21.7395 26.2975 21.8182 26.2628C21.8969 26.2281 21.9674 26.1794 22.0257 26.1195C22.084 26.0596 22.129 25.9896 22.158 25.9137C22.1871 25.8377 22.1997 25.7571 22.1951 25.6767C22.1906 25.5962 22.1689 25.5173 22.1313 25.4446C22.0938 25.3718 22.0411 25.3067 21.9763 25.2527C21.0312 24.4585 20.2743 23.4917 19.7535 22.4135C19.2327 21.3352 18.9593 20.1688 18.9504 18.9879Z" fill="#F6CA49"/>
</g>
<defs>
<filter id="filter0_d_4315_183" x="-1.62125e-05" y="0.000113964" width="56.3174" height="54.1541" filterUnits="userSpaceOnUse" color-interpolation-filters="sRGB">
<feFlood flood-opacity="0" result="BackgroundImageFix"/>
<feColorMatrix in="SourceAlpha" type="matrix" values="0 0 0 0 0 0 0 0 0 0 0 0 0 0 0 0 0 0 127 0" result="hardAlpha"/>
<feMorphology radius="4.93086" operator="erode" in="SourceAlpha" result="effect1_dropShadow_4315_183"/>
<feOffset dy="6.90321"/>
<feGaussianBlur stdDeviation="9.36864"/>
<feComposite in2="hardAlpha" operator="out"/>
<feColorMatrix type="matrix" values="0 0 0 0 0.570718 0 0 0 0 0.389126 0 0 0 0 0 0 0 0 0.11 0"/>
<feBlend mode="normal" in2="BackgroundImageFix" result="effect1_dropShadow_4315_183"/>
<feBlend mode="normal" in="SourceGraphic" in2="effect1_dropShadow_4315_183" result="shape"/>
</filter>
<linearGradient id="paint0_linear_4315_183" x1="28.1587" y1="6.90332" x2="41.3533" y2="65.7678" gradientUnits="userSpaceOnUse">
<stop stop-color="white"/>
<stop offset="1" stop-color="white" stop-opacity="0"/>
</linearGradient>
<clipPath id="clip0_4315_183">
<rect width="21.05" height="19.4635" fill="white" transform="translate(17.6343 10.4421)"/>
</clipPath>
</defs>
</svg>
