<svg width="222" height="249" viewBox="0 0 222 249" fill="none" xmlns="http://www.w3.org/2000/svg">
<path d="M38.9621 236.838C38.8193 237.231 38.498 237.449 38.1768 237.449C38.0518 237.449 37.9269 237.427 37.8198 237.361C36.2314 236.468 34.6786 235.53 33.1615 234.549C32.7332 234.266 32.5725 233.634 32.8045 233.11C33.0366 232.587 33.5542 232.391 33.9825 232.674C35.446 233.634 36.981 234.571 38.5337 235.443C38.9621 235.683 39.1584 236.315 38.9621 236.838ZM35.9279 72.0281C36.2314 71.5703 36.16 70.8945 35.7852 70.5457C35.4104 70.1751 34.8571 70.2622 34.5715 70.7201C33.4828 72.3769 32.4297 74.0337 31.4124 75.6905C31.1268 76.1483 31.1982 76.8242 31.573 77.173C31.7337 77.3256 31.9121 77.391 32.0906 77.391C32.3583 77.391 32.6082 77.2383 32.7867 76.9767C33.804 75.3417 34.8571 73.6849 35.9279 72.0499V72.0281ZM29.5919 229.557C28.1462 228.445 26.7362 227.268 25.3976 226.069C25.005 225.72 24.4696 225.829 24.184 226.287C23.8984 226.767 23.9877 227.421 24.3625 227.769C25.7368 229.012 27.1824 230.211 28.6638 231.345C28.8066 231.454 28.9672 231.497 29.1279 231.497C29.4134 231.497 29.699 231.323 29.8596 230.996C30.1095 230.494 30.0024 229.84 29.5919 229.535V229.557ZM23.6485 90.7981C23.2559 90.4711 22.7026 90.6237 22.4527 91.1033C21.4889 92.891 20.5608 94.6568 19.6684 96.4226C19.4186 96.924 19.5435 97.578 19.954 97.8832C20.0968 97.9922 20.2574 98.0358 20.4181 98.0358C20.7036 98.0358 20.9892 97.8614 21.1498 97.5344C22.0422 95.7904 22.9525 94.0246 23.8984 92.2588C24.1661 91.7791 24.059 91.1033 23.6485 90.7981ZM17.7766 217.959C17.4375 217.545 16.8842 217.523 16.5451 217.959C16.2059 218.373 16.1881 219.049 16.5451 219.463C17.7409 220.968 19.0081 222.428 20.3288 223.824C20.4895 223.998 20.7036 224.085 20.9 224.085C21.1498 224.085 21.3819 223.954 21.5603 223.715C21.8816 223.279 21.8281 222.603 21.4711 222.21C20.186 220.859 18.9545 219.42 17.7944 217.959H17.7766ZM47.9932 51.5794C46.8152 53.149 45.6729 54.6968 44.5307 56.2447C44.2094 56.6807 44.2451 57.3565 44.602 57.7489C44.7627 57.9233 44.9769 58.0105 45.1732 58.0105C45.4052 58.0105 45.6551 57.8797 45.8157 57.6617C46.9401 56.1139 48.0824 54.5661 49.2425 53.0182C49.5638 52.5822 49.5459 51.9064 49.189 51.514C48.832 51.1216 48.2787 51.1434 47.9575 51.5794H47.9932ZM57.8631 243.117C56.1854 242.681 54.5255 242.179 52.9013 241.656C52.4373 241.482 51.9554 241.852 51.8305 242.397C51.7055 242.964 51.9911 243.553 52.4551 243.684C54.0972 244.229 55.7927 244.708 57.4883 245.166C57.5418 245.166 57.6132 245.188 57.6667 245.188C58.0594 245.188 58.4342 244.839 58.5234 244.359C58.6305 243.793 58.3271 243.226 57.8631 243.095V243.117ZM42.3711 60.8881C42.0141 60.5175 41.4608 60.5611 41.1395 60.9971C40.0151 62.6104 38.9086 64.2236 37.8198 65.815C37.5164 66.2728 37.57 66.9268 37.9269 67.3192C38.0875 67.4718 38.2839 67.559 38.4802 67.559C38.7301 67.559 38.9799 67.4282 39.1584 67.1666C40.2293 65.5752 41.3359 63.9838 42.4603 62.3705C42.7637 61.9345 42.728 61.2587 42.3711 60.8663V60.8881ZM63.5923 33.5724C63.2532 33.1582 62.6999 33.1364 62.3608 33.5506C61.1114 35.033 59.8977 36.4936 58.6841 37.9542C58.345 38.3684 58.345 39.0442 58.6841 39.4584C58.8447 39.6764 59.0767 39.7636 59.2909 39.7636C59.5051 39.7636 59.7371 39.6547 59.8977 39.4584C61.0936 37.9978 62.3072 36.5372 63.5566 35.0766C63.8957 34.6624 63.9135 33.9866 63.5744 33.5724H63.5923ZM48.0289 239.912C46.3868 239.258 44.7805 238.561 43.2278 237.841C42.7816 237.623 42.2818 237.906 42.1033 238.451C41.9249 238.997 42.1569 239.607 42.6031 239.825C44.1737 240.566 45.8157 241.286 47.4934 241.94C47.5827 241.983 47.6719 241.983 47.7611 241.983C48.1359 241.983 48.4751 241.7 48.5821 241.242C48.7249 240.675 48.4751 240.087 48.0289 239.912ZM52.7764 48.4402C53.9365 46.9359 55.1145 45.4317 56.3282 43.9275C56.6673 43.5133 56.6494 42.8375 56.3282 42.4233C55.989 42.0091 55.4358 42.0309 55.0966 42.4233C53.883 43.9493 52.6872 45.4535 51.5271 46.9577C51.2058 47.3937 51.2058 48.0478 51.5627 48.462C51.7234 48.6582 51.9376 48.7454 52.1517 48.7454C52.3838 48.7454 52.6158 48.6364 52.7764 48.4184V48.4402ZM0.87455 168.473C1.35644 168.473 1.73125 168.015 1.7491 167.426C1.7491 165.377 1.83834 163.306 1.96328 161.235C1.99897 160.646 1.64201 160.145 1.16012 160.101C0.69607 160.079 0.267719 160.494 0.232023 161.082C0.0892398 163.197 0.017848 165.333 0 167.426C0 168.015 0.374807 168.494 0.856702 168.494L0.87455 168.473ZM2.42732 179.765C2.17745 177.76 1.99897 175.688 1.89188 173.617C1.85619 173.029 1.44568 172.593 0.96379 172.636C0.481895 172.68 0.124936 173.181 0.160632 173.77C0.267719 175.885 0.464047 178.021 0.713918 180.092C0.78531 180.615 1.14227 181.008 1.57062 181.008C1.60632 181.008 1.65986 181.008 1.69556 181.008C2.17745 180.921 2.49871 180.376 2.42732 179.809V179.765ZM1.55277 155.959C1.55277 155.959 1.64201 155.959 1.67771 155.959C2.10606 155.959 2.48087 155.567 2.53441 155.044C2.76643 153.038 3.052 150.967 3.39111 148.918C3.48035 148.351 3.17694 147.784 2.71289 147.675C2.24884 147.566 1.7848 147.937 1.69556 148.503C1.35644 150.596 1.05303 152.689 0.821006 154.738C0.749614 155.327 1.08873 155.85 1.55277 155.937V155.959ZM3.48035 143.642C3.48035 143.642 3.62314 143.686 3.69453 143.686C4.08718 143.686 4.42629 143.359 4.53338 142.901C4.94388 140.939 5.42578 138.911 5.94337 136.928C6.08615 136.361 5.83628 135.772 5.37224 135.598C4.90819 135.423 4.42629 135.729 4.28351 136.295C3.76592 138.323 3.28402 140.372 2.85567 142.378C2.73074 142.944 3.0163 143.533 3.48035 143.664V143.642ZM26.058 87.5281C26.3257 87.5281 26.6113 87.3755 26.7719 87.0703C27.7357 85.3916 28.7174 83.6912 29.7347 81.969C30.0203 81.4894 29.931 80.8354 29.5384 80.4866C29.1457 80.1378 28.6103 80.2468 28.3247 80.7264C27.2895 82.4486 26.3079 84.149 25.3441 85.8713C25.0764 86.3509 25.1656 87.0049 25.5583 87.3537C25.7011 87.4845 25.8795 87.5499 26.058 87.5499V87.5281ZM11.4048 208.389C11.1371 207.909 10.6017 207.779 10.1912 208.106C9.79853 208.433 9.69144 209.087 9.95916 209.588C10.923 211.332 11.976 213.054 13.0647 214.689C13.2432 214.951 13.4931 215.082 13.7429 215.082C13.9393 215.082 14.1356 214.994 14.2962 214.842C14.671 214.471 14.7246 213.795 14.4211 213.359C13.3503 211.768 12.3329 210.089 11.4048 208.411V208.389ZM10.3161 120.011C10.4411 120.076 10.5481 120.098 10.6731 120.098C11.0122 120.098 11.3156 119.858 11.4584 119.487C12.1545 117.634 12.8862 115.759 13.6537 113.863C13.8679 113.34 13.6894 112.707 13.261 112.446C12.8327 112.184 12.3151 112.402 12.1009 112.925C11.3156 114.844 10.566 116.74 9.86992 118.615C9.67359 119.138 9.86992 119.771 10.2983 120.011H10.3161ZM3.39111 185.847C3.28402 185.281 2.81998 184.91 2.35593 185.063C1.89188 185.193 1.60632 185.76 1.7134 186.327C2.10606 188.398 2.58795 190.469 3.12339 192.453C3.24833 192.889 3.58744 193.172 3.9444 193.172C4.03364 193.172 4.12288 193.172 4.21212 193.129C4.65832 192.954 4.90819 192.344 4.76541 191.799C4.24781 189.859 3.78377 187.853 3.39111 185.847ZM8.95968 123.826C8.51348 123.608 8.01373 123.869 7.83525 124.392C7.17488 126.376 6.5502 128.338 5.96122 130.278C5.80059 130.823 6.03261 131.434 6.47881 131.63C6.56805 131.674 6.67514 131.695 6.78222 131.695C7.13918 131.695 7.47829 131.434 7.60323 130.998C8.17437 129.079 8.7812 127.139 9.44157 125.177C9.62005 124.632 9.40587 124.022 8.97752 123.804L8.95968 123.826ZM6.5502 197.576C6.35387 197.031 5.85413 196.791 5.40793 197.031C4.96173 197.271 4.7654 197.881 4.96173 198.426C5.6578 200.366 6.42526 202.285 7.26412 204.16C7.42475 204.508 7.71032 204.705 8.03158 204.705C8.17437 204.705 8.31715 204.661 8.44208 204.574C8.87043 204.29 9.01322 203.658 8.7812 203.135C7.97804 201.326 7.22842 199.473 6.5502 197.598V197.576ZM18.2228 101.437C17.8123 101.131 17.2768 101.306 17.027 101.829C16.1524 103.682 15.3135 105.513 14.4925 107.323C14.2605 107.846 14.4212 108.478 14.8495 108.762C14.9744 108.849 15.1172 108.892 15.26 108.892C15.5634 108.892 15.8668 108.696 16.0275 108.347C16.8306 106.538 17.6695 104.729 18.5262 102.897C18.7761 102.396 18.6333 101.742 18.2049 101.458L18.2228 101.437ZM185.494 210.809C183.995 211.833 182.495 212.814 180.996 213.795C180.568 214.079 180.407 214.711 180.639 215.234C180.8 215.583 181.103 215.801 181.407 215.801C181.549 215.801 181.692 215.757 181.817 215.67C183.316 214.689 184.833 213.686 186.351 212.662C186.761 212.378 186.922 211.724 186.69 211.223C186.458 210.722 185.922 210.525 185.512 210.809H185.494ZM167.218 222.123C165.647 222.995 164.094 223.845 162.541 224.674C162.095 224.914 161.899 225.524 162.095 226.069C162.238 226.461 162.559 226.701 162.898 226.701C163.005 226.701 163.13 226.679 163.237 226.614C164.808 225.786 166.379 224.914 167.949 224.042C168.378 223.802 168.574 223.169 168.378 222.646C168.181 222.123 167.664 221.883 167.235 222.123H167.218ZM176.445 216.673C174.91 217.632 173.375 218.548 171.858 219.442C171.43 219.703 171.251 220.335 171.447 220.859C171.59 221.229 171.912 221.447 172.233 221.447C172.358 221.447 172.483 221.404 172.608 221.338C174.143 220.423 175.677 219.507 177.23 218.548C177.659 218.286 177.819 217.654 177.605 217.131C177.391 216.608 176.873 216.39 176.445 216.673ZM138.572 235.617C136.93 236.25 135.288 236.838 133.663 237.405C133.199 237.558 132.932 238.146 133.074 238.713C133.181 239.171 133.538 239.476 133.913 239.476C133.985 239.476 134.074 239.476 134.145 239.433C135.787 238.866 137.429 238.255 139.089 237.623C139.553 237.449 139.803 236.86 139.66 236.293C139.517 235.726 139.036 235.421 138.572 235.596V235.617ZM157.829 227.115C156.241 227.922 154.653 228.685 153.064 229.426C152.618 229.644 152.386 230.255 152.564 230.8C152.689 231.214 153.028 231.475 153.367 231.475C153.475 231.475 153.582 231.454 153.689 231.41C155.277 230.669 156.884 229.884 158.472 229.077C158.918 228.859 159.132 228.227 158.936 227.704C158.758 227.159 158.24 226.897 157.812 227.137L157.829 227.115ZM148.281 231.628C146.657 232.347 145.05 233.023 143.444 233.699C142.998 233.895 142.748 234.484 142.891 235.051C143.016 235.487 143.355 235.77 143.712 235.77C143.801 235.77 143.89 235.77 143.997 235.705C145.621 235.029 147.246 234.353 148.87 233.634C149.316 233.437 149.548 232.827 149.387 232.282C149.227 231.737 148.727 231.454 148.281 231.65V231.628ZM194.364 204.53C192.883 205.62 191.419 206.667 189.956 207.713C189.545 207.996 189.403 208.65 189.635 209.152C189.795 209.501 190.081 209.675 190.384 209.675C190.527 209.675 190.688 209.632 190.813 209.523C192.294 208.476 193.775 207.408 195.257 206.318C195.667 206.013 195.792 205.359 195.56 204.857C195.31 204.356 194.775 204.203 194.364 204.487V204.53ZM211.534 190.861C210.124 192.06 208.714 193.238 207.304 194.415C206.911 194.742 206.804 195.396 207.072 195.897C207.233 196.203 207.518 196.355 207.786 196.355C207.947 196.355 208.125 196.29 208.268 196.181C209.678 195.004 211.106 193.826 212.516 192.605C212.908 192.278 212.998 191.603 212.73 191.123C212.462 190.643 211.909 190.534 211.516 190.861H211.534ZM221.047 183.733C220.761 183.275 220.208 183.166 219.833 183.515C218.459 184.779 217.085 186 215.71 187.221C215.318 187.57 215.229 188.224 215.514 188.703C215.693 188.987 215.942 189.139 216.21 189.139C216.389 189.139 216.567 189.074 216.728 188.943C218.102 187.722 219.494 186.48 220.868 185.215C221.243 184.866 221.333 184.191 221.047 183.733ZM203.038 197.881C201.593 199.037 200.165 200.148 198.719 201.26C198.309 201.565 198.184 202.219 198.451 202.721C198.612 203.048 198.898 203.222 199.183 203.222C199.344 203.222 199.504 203.179 199.647 203.07C201.093 201.958 202.539 200.824 203.984 199.669C204.395 199.342 204.502 198.688 204.234 198.208C203.966 197.729 203.431 197.576 203.038 197.903V197.881ZM78.1205 246.234C76.4071 246.147 74.7116 246.016 73.016 245.842C72.5163 245.755 72.1236 246.234 72.0879 246.801C72.0522 247.39 72.4092 247.891 72.8732 247.935C74.5688 248.109 76.3 248.24 78.0313 248.327H78.067C78.531 248.327 78.9058 247.891 78.9415 247.324C78.9594 246.736 78.5845 246.234 78.1205 246.212V246.234ZM86.4377 9.89725C86.8125 9.52664 86.8482 8.85083 86.5447 8.39303C86.2413 7.95702 85.688 7.89162 85.3132 8.26222C83.9925 9.63564 82.6896 10.9873 81.4045 12.3389C81.0476 12.7313 80.994 13.3853 81.3153 13.8431C81.4938 14.0829 81.7258 14.2137 81.9757 14.2137C82.172 14.2137 82.3862 14.1265 82.5468 13.9521C83.8319 12.6005 85.1348 11.2489 86.4555 9.87545L86.4377 9.89725ZM77.5137 16.4809C76.2108 17.8762 74.9257 19.2714 73.6764 20.6666C73.3194 21.059 73.2837 21.7348 73.605 22.1708C73.7835 22.4106 74.0155 22.5196 74.2475 22.5196C74.4617 22.5196 74.658 22.4324 74.8365 22.258C76.0858 20.8628 77.3709 19.4894 78.6738 18.0942C79.0308 17.7018 79.0665 17.0477 78.7452 16.5899C78.4239 16.1539 77.8706 16.1103 77.5137 16.5027V16.4809ZM128.719 239.04C127.06 239.563 125.4 240.065 123.758 240.544C123.294 240.675 123.008 241.242 123.115 241.809C123.204 242.288 123.561 242.637 123.954 242.637C124.025 242.637 124.079 242.637 124.15 242.615C125.81 242.136 127.488 241.634 129.166 241.111C129.63 240.959 129.915 240.392 129.79 239.825C129.665 239.258 129.184 238.909 128.737 239.062L128.719 239.04ZM88.3295 246.321C87.0088 246.365 85.7059 246.387 84.4208 246.387H83.225C82.7788 246.3 82.3505 246.845 82.3505 247.433C82.3505 248.022 82.7253 248.501 83.2072 248.501H84.4208C85.7237 248.501 87.0445 248.501 88.3831 248.436C88.865 248.436 89.2398 247.935 89.2219 247.346C89.2219 246.757 88.8293 246.321 88.3295 246.321ZM67.9472 245.188C66.2338 244.926 64.5561 244.621 62.8962 244.294C62.4322 244.207 61.9681 244.577 61.8967 245.166C61.8075 245.755 62.1287 246.3 62.6106 246.387C64.2883 246.736 66.0017 247.041 67.733 247.302C67.7687 247.302 67.8044 247.302 67.8401 247.302C68.2684 247.302 68.6432 246.91 68.6968 246.365C68.7503 245.776 68.4112 245.253 67.9472 245.188ZM69.8747 24.8958C68.6075 26.3347 67.3403 27.7735 66.1088 29.1905C65.7697 29.6047 65.7519 30.2587 66.0731 30.6947C66.2516 30.9127 66.4658 31.0217 66.6978 31.0217C66.912 31.0217 67.1262 30.9345 67.2868 30.7383C68.5183 29.3213 69.7677 27.8825 71.0349 26.4655C71.3918 26.0731 71.4097 25.3973 71.0884 24.9612C70.7672 24.5252 70.2139 24.5034 69.8569 24.8958H69.8747ZM108.694 244.076C106.999 244.381 105.303 244.665 103.625 244.926C103.143 244.992 102.804 245.515 102.876 246.103C102.929 246.648 103.304 247.041 103.732 247.041C103.768 247.041 103.804 247.041 103.839 247.041C105.535 246.801 107.231 246.518 108.962 246.191C109.444 246.103 109.765 245.558 109.694 244.992C109.622 244.403 109.194 244.011 108.712 244.098L108.694 244.076ZM118.76 241.874C117.083 242.288 115.405 242.703 113.727 243.051C113.263 243.16 112.942 243.705 113.031 244.272C113.103 244.795 113.477 245.144 113.888 245.144C113.941 245.144 113.995 245.144 114.048 245.144C115.726 244.774 117.422 244.381 119.117 243.945C119.581 243.836 119.885 243.269 119.795 242.681C119.706 242.114 119.242 241.743 118.778 241.852L118.76 241.874ZM94.4692 0.392326C94.1658 -0.0654804 93.6125 -0.130889 93.2556 0.239716C91.917 1.56953 90.5784 2.89936 89.2755 4.22917C88.9007 4.59978 88.8471 5.27558 89.1684 5.73339C89.3469 5.99499 89.5967 6.1258 89.8466 6.1258C90.0429 6.1258 90.2393 6.03859 90.3999 5.88599C91.7028 4.55617 93.0236 3.24816 94.3622 1.91834C94.737 1.54773 94.7905 0.871925 94.4871 0.435919L94.4692 0.392326ZM98.5207 245.58C96.8073 245.776 95.1118 245.929 93.4162 246.038C92.9343 246.082 92.5774 246.583 92.5952 247.15C92.6309 247.717 93.0057 248.153 93.4519 248.153H93.5054C95.201 248.022 96.9323 247.869 98.6635 247.673C99.1454 247.629 99.4845 247.106 99.4488 246.518C99.4131 245.929 98.9848 245.537 98.5029 245.558L98.5207 245.58Z" fill="#DD149F"/>
</svg>
