<svg width="34" height="30" viewBox="0 0 34 30" fill="none" xmlns="http://www.w3.org/2000/svg">
<path d="M26.3296 7.65758C29.8332 4.8799 33.6346 0.869631 33.0215 0.12313C32.4083 -0.623372 27.6259 2.15431 24.1223 4.94935C23.807 5.20975 23.4917 5.4528 23.1938 5.69585C22.5807 5.59169 21.3019 5.38336 19.6727 5.12295C19.6902 5.12295 19.7253 5.12295 19.7428 5.12295L20.6888 4.37645C20.8114 4.28965 20.8114 4.09868 20.6888 3.97716L19.953 3.07441C19.8479 2.93553 19.6727 2.90081 19.5501 3.00497L18.6041 3.75147C18.6041 3.75147 18.5341 3.85563 18.5165 3.92508L17.4129 4.7931C16.029 4.56742 14.5224 4.32437 13.0334 4.08132L13.9619 3.35218C14.0845 3.26538 14.0845 3.07441 13.9619 2.95289L13.2261 2.05014C13.121 1.91126 12.9458 1.87654 12.8232 1.9807L11.8772 2.7272C11.8772 2.7272 11.8071 2.83137 11.7896 2.90081L10.721 3.73411C6.93713 3.1265 3.76637 2.6404 3.66126 2.67512C3.39849 2.76192 2.0496 3.90772 2.0496 3.90772C1.71676 4.16812 1.48903 4.41117 1.50655 4.44589C1.54159 4.48061 1.92698 4.22021 2.2423 3.97716L9.19696 6.49443C8.9517 6.72012 8.81156 6.92844 8.86411 6.99789C8.93418 7.08469 9.24951 6.92844 9.56483 6.66804L9.59987 6.63332L10.9663 7.13677C10.7385 7.3451 10.5984 7.55342 10.6509 7.62287C10.721 7.70967 11.0363 7.55342 11.3517 7.29302L12.5954 7.72703L13.3487 8.2652C13.0684 8.50825 12.8757 8.7513 12.9283 8.82074C12.9984 8.90754 13.3137 8.7513 13.629 8.49089H13.6465L15.1356 9.53252C14.8553 9.77556 14.6626 10.0186 14.7326 10.0881C14.8027 10.1749 15.118 10.0186 15.4334 9.75821L16.7998 10.7304C14.4699 12.6227 13.5589 13.3865 11.8247 14.7754C10.0729 16.1642 8.47872 17.6225 7.1999 18.9246C5.13278 18.6121 1.05108 17.935 1.05108 17.935L0 18.6294L4.43205 22.0321C4.1868 22.3619 3.9941 22.6223 3.88899 22.8307C3.20579 23.4556 2.80288 23.8723 2.85543 23.9417C2.90799 24.0112 3.3985 23.7334 4.13425 23.2126C4.36199 23.1432 4.67731 22.9869 5.08022 22.7959L7.48019 27.8826L8.40864 27.0319C8.40864 27.0319 8.6539 22.6571 8.79404 20.6606C10.3006 19.7231 12.0174 18.6121 13.8042 17.3795C15.9764 15.6608 16.9574 14.9316 18.972 13.3692L19.6202 14.8969C19.2873 15.1747 19.0771 15.4351 19.1472 15.5219C19.1997 15.5913 19.48 15.4698 19.7953 15.2441L20.5136 16.9281H20.4961C20.1632 17.2059 19.953 17.4836 20.0231 17.5531C20.0756 17.6225 20.3734 17.501 20.6712 17.2753L21.0391 18.1086L21.2143 19.4106C20.8815 19.671 20.6712 19.9488 20.7413 20.0356C20.7939 20.1051 21.0216 20.0183 21.2844 19.8273L21.4771 21.2682H21.442C21.1092 21.546 20.899 21.8238 20.9691 21.9106C21.0216 21.98 21.2669 21.8758 21.5296 21.6849L22.4756 28.9589C22.1778 29.2193 21.8274 29.5318 21.845 29.5665C21.88 29.6013 22.1603 29.4277 22.4931 29.1672C22.4931 29.1672 23.9296 28.1083 24.0522 27.8826C24.1048 27.7958 24.315 24.6188 24.5602 20.8342L25.6288 20.0009C25.6288 20.0009 25.769 20.0009 25.8215 19.9662L26.7675 19.2197C26.8901 19.1329 26.8901 18.9419 26.7675 18.8204L26.0318 17.9176C25.9267 17.7788 25.7515 17.744 25.6288 17.8482L24.7004 18.5773C24.788 17.0843 24.8756 15.5913 24.9632 14.1851L26.0668 13.3171C26.0668 13.3171 26.2069 13.3171 26.2595 13.2824L27.2055 12.5359C27.3281 12.4491 27.3281 12.2581 27.2055 12.1366L26.4697 11.2338C26.3646 11.095 26.1894 11.0602 26.0668 11.1644L25.1208 11.9109C25.1208 11.9109 25.1208 11.9456 25.0858 11.9804C25.1909 10.3658 25.261 9.09851 25.296 8.47353C25.5938 8.23048 25.9091 7.98743 26.242 7.72703L26.3296 7.65758Z" fill="#DD149F"/>
</svg>
