<svg width="71" height="71" viewBox="0 0 71 71" fill="none" xmlns="http://www.w3.org/2000/svg">
<rect opacity="0.08" width="70.0579" height="70.0579" rx="35.0289" fill="#5869FF"/>
<path d="M38.8803 18.3765C38.0557 18.4633 37.2745 19.0275 36.8405 19.8521C36.2763 20.9805 32.1099 29.3566 31.2854 30.1812C30.4608 31.0058 29.3758 31.3964 28.1606 31.3964V48.7561H43.3504C44.2618 48.7561 45.043 48.1919 45.3902 47.4108C45.3902 47.4108 49.8603 34.7815 49.8603 33.5663C49.8603 32.3511 48.9055 31.3964 47.6903 31.3964H41.1804C39.9652 31.3964 39.0105 30.3114 39.0105 29.2264C39.0105 28.1414 40.703 22.3693 41.0502 21.2409C41.3974 20.1125 40.8332 18.8973 39.7048 18.5067C39.4011 18.4199 39.1841 18.3331 38.8803 18.3765ZM19.4807 31.3964V48.7561H23.8207V31.3964H19.4807Z" fill="#3200AA"/>
</svg>
