<svg width="16" height="24" viewBox="0 0 16 24" fill="none" xmlns="http://www.w3.org/2000/svg">
<path d="M15.9801 7.912C15.9801 3.54293 12.405 0 7.99625 0C3.58754 0 0.0124733 3.54293 0.0124733 7.912C0.0124733 7.912 -0.348248 10.6605 2.81 15.1249C4.2288 17.1347 7.99625 23.1005 7.99625 23.1005C7.99625 23.1005 11.7637 17.1347 13.1825 15.1249C16.3408 10.6605 15.9801 7.912 15.9801 7.912ZM7.99625 13.8222C4.7819 13.8222 2.17676 11.2404 2.17676 8.05499C2.17676 4.86954 4.7819 2.28781 7.99625 2.28781C11.2106 2.28781 13.8158 4.86954 13.8158 8.05499C13.8158 11.2404 11.2106 13.8222 7.99625 13.8222Z" fill="#DD149F"/>
</svg>
