<svg width="235" height="68" viewBox="0 0 235 68" fill="none" xmlns="http://www.w3.org/2000/svg">
<path d="M85.387 31.6517H76.6587V39.6846H86.3861V42.0991H73.7632V19.8226H85.8866V22.2371H76.6587V29.2785H85.387V31.6563V31.6517Z" fill="#3400AA"/>
<path d="M98.9771 42.0991L98.7458 40.084H98.644C97.7467 41.3417 96.0121 42.4617 93.7132 42.4617C90.4476 42.4617 88.7825 40.1804 88.7825 37.8669C88.7825 34.0019 92.247 31.8858 98.4729 31.9179V31.5874C98.4729 30.2654 98.1075 27.8877 94.8095 27.8877C93.3108 27.8877 91.7474 28.3513 90.6142 29.0766L89.9481 27.1578C91.2802 26.2995 93.2137 25.7349 95.2443 25.7349C100.175 25.7349 101.373 29.072 101.373 32.2806V38.2616C101.373 39.6479 101.438 41.0066 101.641 42.0945H98.9771V42.0991ZM98.5423 33.933C95.346 33.8688 91.715 34.4288 91.715 37.5364C91.715 39.4184 92.9824 40.3135 94.4811 40.3135C96.581 40.3135 97.9132 38.9915 98.3757 37.6374C98.4775 37.339 98.5423 37.0085 98.5423 36.7101V33.933Z" fill="#3400AA"/>
<path d="M105.703 39.1246C106.568 39.6846 108.099 40.2813 109.565 40.2813C111.697 40.2813 112.696 39.2256 112.696 37.9036C112.696 36.5173 111.864 35.7554 109.699 34.9612C106.803 33.9376 105.434 32.3494 105.434 30.4353C105.434 27.8556 107.534 25.7395 110.994 25.7395C112.627 25.7395 114.056 26.2031 114.958 26.7309L114.227 28.847C113.594 28.4523 112.428 27.9198 110.929 27.9198C109.2 27.9198 108.233 28.9113 108.233 30.1002C108.233 31.4222 109.199 32.0189 111.295 32.813C114.093 33.8688 115.527 35.2596 115.527 37.6374C115.527 40.4466 113.33 42.4296 109.5 42.4296C107.733 42.4296 106.105 41.9981 104.972 41.3371L105.703 39.1246Z" fill="#3400AA"/>
<path d="M120.356 26.1021L123.885 35.5534C124.251 36.6091 124.653 37.8669 124.917 38.8262H124.982C125.282 37.8669 125.615 36.6459 126.013 35.4891L129.209 26.1021H132.308L127.914 37.5042C125.814 42.9896 124.385 45.7988 122.387 47.5201C120.953 48.7779 119.524 49.2736 118.788 49.4021L118.057 46.9555C118.788 46.726 119.755 46.2624 120.62 45.5326C121.42 44.9037 122.419 43.7791 123.085 42.2919C123.219 41.9935 123.316 41.764 123.316 41.5987C123.316 41.4335 123.252 41.204 123.118 40.8368L117.155 26.0975H120.351L120.356 26.1021Z" fill="#3400AA"/>
<path d="M145.866 42.0991L138.539 19.8226H141.67L145.167 30.7979C146.134 33.8045 146.966 36.5173 147.563 39.1292H147.628C148.262 36.5495 149.191 33.7402 150.19 30.8346L153.988 19.8272H157.087L149.062 42.1037H145.866V42.0991Z" fill="#3400AA"/>
<path d="M167.249 42.0991L167.018 40.084H166.916C166.019 41.3417 164.284 42.4617 161.985 42.4617C158.72 42.4617 157.055 40.1804 157.055 37.8669C157.055 34.0019 160.519 31.8858 166.745 31.9179V31.5874C166.745 30.2654 166.38 27.8877 163.082 27.8877C161.583 27.8877 160.02 28.3513 158.886 29.0766L158.22 27.1578C159.552 26.2995 161.486 25.7349 163.516 25.7349C168.447 25.7349 169.645 29.072 169.645 32.2806V38.2616C169.645 39.6479 169.71 41.0066 169.913 42.0945H167.249V42.0991ZM166.814 33.933C163.618 33.8688 159.987 34.4288 159.987 37.5364C159.987 39.4184 161.255 40.3135 162.753 40.3135C164.853 40.3135 166.185 38.9915 166.648 37.6374C166.75 37.339 166.814 37.0085 166.814 36.7101V33.933Z" fill="#3400AA"/>
<path d="M185.862 41.5023C185.095 41.8971 183.397 42.4296 181.232 42.4296C176.371 42.4296 173.207 39.1567 173.207 34.2635C173.207 29.3703 176.602 25.767 181.866 25.767C183.596 25.767 185.132 26.1985 185.927 26.5932L185.261 28.8425C184.563 28.4477 183.462 28.0805 181.866 28.0805C178.17 28.0805 176.172 30.7887 176.172 34.1304C176.172 37.8302 178.568 40.1115 181.769 40.1115C183.434 40.1115 184.535 39.68 185.367 39.3174L185.867 41.4978L185.862 41.5023Z" fill="#3400AA"/>
<path d="M198.221 42.0991L197.99 40.084H197.888C196.991 41.3417 195.256 42.4617 192.957 42.4617C189.692 42.4617 188.027 40.1804 188.027 37.8669C188.027 34.0019 191.491 31.8858 197.717 31.9179V31.5874C197.717 30.2654 197.352 27.8877 194.054 27.8877C192.555 27.8877 190.992 28.3513 189.858 29.0766L189.192 27.1578C190.524 26.2995 192.458 25.7349 194.488 25.7349C199.419 25.7349 200.617 29.072 200.617 32.2806V38.2616C200.617 39.6479 200.682 41.0066 200.885 42.0945H198.221V42.0991ZM197.786 33.933C194.59 33.8688 190.959 34.4288 190.959 37.5364C190.959 39.4184 192.227 40.3135 193.725 40.3135C195.825 40.3135 197.157 38.9915 197.62 37.6374C197.722 37.339 197.786 37.0085 197.786 36.7101V33.933Z" fill="#3400AA"/>
<path d="M206.145 26.1021L209.674 35.5534C210.04 36.6091 210.442 37.8669 210.706 38.8262H210.77C211.071 37.8669 211.404 36.6459 211.802 35.4891L214.998 26.1021H218.097L213.703 37.5042C211.603 42.9896 210.174 45.7988 208.176 47.5201C206.742 48.7779 205.312 49.2736 204.577 49.4021L203.846 46.9555C204.577 46.726 205.544 46.2624 206.409 45.5326C207.209 44.9037 208.208 43.7791 208.874 42.2919C209.008 41.9935 209.105 41.764 209.105 41.5987C209.105 41.4335 209.04 41.204 208.906 40.8368L202.944 26.0975H206.14L206.145 26.1021Z" fill="#3400AA"/>
<path d="M76.6843 64.3036L73.7632 55.4248H75.0092L76.4034 59.7983C76.7864 60.9994 77.1183 62.0788 77.3584 63.1177H77.3839C77.6341 62.089 78.0069 60.969 78.4052 59.8084L79.9168 55.4197H81.1527L77.9507 64.2986H76.674L76.6843 64.3036Z" fill="#403B4D"/>
<path d="M85.2072 64.3037L85.1153 63.4979H85.0744C84.717 63.9996 84.0275 64.4456 83.1083 64.4456C81.8061 64.4456 81.1422 63.5384 81.1422 62.6161C81.1422 61.0754 82.521 60.2291 85.008 60.2443V60.1125C85.008 59.5855 84.8599 58.6378 83.5475 58.6378C82.95 58.6378 82.327 58.8202 81.8725 59.1142L81.6069 58.3489C82.138 58.0043 82.9092 57.7813 83.716 57.7813C85.6821 57.7813 86.1571 59.1142 86.1571 60.3913V62.7782C86.1571 63.3306 86.1826 63.8729 86.2643 64.3087H85.2021L85.2072 64.3037ZM85.0336 61.0501C83.7569 61.0248 82.3117 61.2477 82.3117 62.4843C82.3117 63.2343 82.8172 63.5891 83.4147 63.5891C84.2522 63.5891 84.7833 63.062 84.9672 62.5198C85.008 62.4032 85.0336 62.2715 85.0336 62.1498V61.045V61.0501Z" fill="#403B4D"/>
<path d="M92.6279 64.0655C92.3215 64.2226 91.6474 64.4354 90.7843 64.4354C88.8438 64.4354 87.5824 63.133 87.5824 61.1819C87.5824 59.2307 88.9357 57.7965 91.0346 57.7965C91.724 57.7965 92.3368 57.9689 92.6534 58.126L92.3879 59.023C92.107 58.8659 91.6729 58.7189 91.0346 58.7189C89.5587 58.7189 88.7621 59.7983 88.7621 61.1312C88.7621 62.6059 89.717 63.5181 90.9937 63.5181C91.6576 63.5181 92.0968 63.3458 92.4287 63.2039L92.6279 64.0756V64.0655Z" fill="#403B4D"/>
<path d="M97.5555 64.3037L97.4635 63.4979H97.4227C97.0652 63.9996 96.3758 64.4456 95.4566 64.4456C94.1544 64.4456 93.4905 63.5384 93.4905 62.6161C93.4905 61.0754 94.8693 60.2291 97.3563 60.2443V60.1125C97.3563 59.5855 97.2082 58.6378 95.8958 58.6378C95.2983 58.6378 94.6752 58.8202 94.2207 59.1142L93.9552 58.3489C94.4863 58.0043 95.2574 57.7813 96.0643 57.7813C98.0304 57.7813 98.5053 59.1142 98.5053 60.3913V62.7782C98.5053 63.3306 98.5309 63.8729 98.6126 64.3087H97.5504L97.5555 64.3037ZM97.3818 61.0501C96.1051 61.0248 94.6599 61.2477 94.6599 62.4843C94.6599 63.2343 95.1655 63.5891 95.763 63.5891C96.6005 63.5891 97.1316 63.062 97.3155 62.5198C97.3563 62.4032 97.3818 62.2715 97.3818 62.1498V61.045V61.0501Z" fill="#403B4D"/>
<path d="M101.749 56.0937V57.9232H103.424V58.805H101.749V62.2461C101.749 63.0367 101.973 63.4826 102.627 63.4826C102.933 63.4826 103.158 63.4421 103.306 63.4016L103.357 64.2732C103.133 64.3645 102.775 64.4303 102.321 64.4303C101.774 64.4303 101.34 64.258 101.059 63.9438C100.727 63.5992 100.61 63.0367 100.61 62.2816V58.805H99.614V57.9232H100.61V56.3927L101.754 56.0887L101.749 56.0937Z" fill="#403B4D"/>
<path d="M106.038 56.1342C106.054 56.5295 105.757 56.8437 105.293 56.8437C104.879 56.8437 104.588 56.5295 104.588 56.1342C104.588 55.7389 104.894 55.4095 105.318 55.4095C105.742 55.4095 106.033 55.7237 106.033 56.1342H106.038ZM104.736 64.3036V57.9283H105.906V64.3036H104.736Z" fill="#403B4D"/>
<path d="M113.662 61.0602C113.662 63.4168 112.018 64.4456 110.46 64.4456C108.719 64.4456 107.381 63.1786 107.381 61.1667C107.381 59.0331 108.79 57.7813 110.568 57.7813C112.345 57.7813 113.662 59.1142 113.662 61.0602ZM108.561 61.1261C108.561 62.5248 109.373 63.579 110.511 63.579C111.65 63.579 112.462 62.54 112.462 61.1008C112.462 60.0213 111.916 58.6479 110.537 58.6479C109.158 58.6479 108.561 59.9149 108.561 61.1261Z" fill="#403B4D"/>
<path d="M115.133 59.6514C115.133 58.9926 115.118 58.4503 115.082 57.9232H116.119L116.185 58.9774H116.211C116.527 58.3692 117.273 57.7763 118.335 57.7763C119.224 57.7763 120.608 58.3033 120.608 60.4926V64.2986H119.438V60.6244C119.438 59.5956 119.055 58.7392 117.952 58.7392C117.181 58.7392 116.584 59.2814 116.384 59.925C116.333 60.072 116.303 60.2697 116.303 60.4673V64.3037H115.133V59.6514Z" fill="#403B4D"/>
<path d="M125.356 55.5262C125.913 55.4349 126.643 55.3539 127.573 55.3539C128.717 55.3539 129.549 55.6174 130.08 56.0938C130.57 56.5144 130.862 57.1631 130.862 57.9537C130.862 58.7442 130.621 59.3879 130.172 59.849C129.559 60.4927 128.563 60.8221 127.435 60.8221C127.088 60.8221 126.771 60.8069 126.505 60.741V64.2986H125.351V55.5211L125.356 55.5262ZM126.511 59.8085C126.761 59.8744 127.083 59.8997 127.466 59.8997C128.86 59.8997 129.707 59.2257 129.707 58.0043C129.707 56.783 128.87 56.2661 127.598 56.2661C127.093 56.2661 126.71 56.3066 126.511 56.3573V59.8085Z" fill="#403B4D"/>
<path d="M132.317 54.9484H133.486V64.3037H132.317V54.9484Z" fill="#403B4D"/>
<path d="M139.008 64.3037L138.916 63.4979H138.875C138.518 63.9996 137.828 64.4456 136.909 64.4456C135.607 64.4456 134.943 63.5384 134.943 62.6161C134.943 61.0754 136.322 60.2291 138.809 60.2443V60.1125C138.809 59.5855 138.661 58.6378 137.348 58.6378C136.751 58.6378 136.128 58.8202 135.673 59.1142L135.408 58.3489C135.939 58.0043 136.71 57.7813 137.517 57.7813C139.483 57.7813 139.958 59.1142 139.958 60.3913V62.7782C139.958 63.3306 139.983 63.8729 140.065 64.3087H139.003L139.008 64.3037ZM138.834 61.0501C137.558 61.0248 136.112 61.2477 136.112 62.4843C136.112 63.2343 136.618 63.5891 137.215 63.5891C138.053 63.5891 138.584 63.062 138.768 62.5198C138.809 62.4032 138.834 62.2715 138.834 62.1498V61.045V61.0501Z" fill="#403B4D"/>
<path d="M141.847 59.6514C141.847 58.9926 141.832 58.4503 141.796 57.9232H142.832L142.899 58.9774H142.924C143.241 58.3692 143.987 57.7763 145.049 57.7763C145.937 57.7763 147.321 58.3033 147.321 60.4926V64.2986H146.152V60.6244C146.152 59.5956 145.769 58.7392 144.666 58.7392C143.895 58.7392 143.297 59.2814 143.098 59.925C143.047 60.072 143.016 60.2697 143.016 60.4673V64.3037H141.847V59.6514Z" fill="#403B4D"/>
<path d="M149.216 59.6514C149.216 58.9926 149.2 58.4503 149.165 57.9232H150.201L150.268 58.9774H150.293C150.61 58.3692 151.355 57.7763 152.418 57.7763C153.306 57.7763 154.69 58.3033 154.69 60.4926V64.2986H153.521V60.6244C153.521 59.5956 153.138 58.7392 152.035 58.7392C151.263 58.7392 150.666 59.2814 150.467 59.925C150.416 60.072 150.385 60.2697 150.385 60.4673V64.3037H149.216V59.6514Z" fill="#403B4D"/>
<path d="M157.887 56.1342C157.902 56.5295 157.606 56.8437 157.141 56.8437C156.728 56.8437 156.437 56.5295 156.437 56.1342C156.437 55.7389 156.743 55.4095 157.167 55.4095C157.591 55.4095 157.882 55.7237 157.882 56.1342H157.887ZM156.585 64.3036V57.9283H157.754V64.3036H156.585Z" fill="#403B4D"/>
<path d="M159.695 59.6514C159.695 58.9926 159.679 58.4503 159.644 57.9232H160.68L160.747 58.9774H160.772C161.089 58.3692 161.834 57.7763 162.897 57.7763C163.785 57.7763 165.169 58.3033 165.169 60.4926V64.2986H164V60.6244C164 59.5956 163.617 58.7392 162.514 58.7392C161.742 58.7392 161.145 59.2814 160.946 59.925C160.895 60.072 160.864 60.2697 160.864 60.4673V64.3037H159.695V59.6514Z" fill="#403B4D"/>
<path d="M172.6 57.9232C172.574 58.3844 172.549 58.8962 172.549 59.6767V63.3813C172.549 64.8459 172.257 65.7378 171.634 66.2953C171.011 66.873 170.107 67.0605 169.295 67.0605C168.484 67.0605 167.677 66.8781 167.156 66.5335L167.447 65.6517C167.871 65.9152 168.535 66.1534 169.331 66.1534C170.526 66.1534 171.405 65.5351 171.405 63.9286V63.2191H171.379C171.022 63.812 170.332 64.2884 169.336 64.2884C167.743 64.2884 166.599 62.9454 166.599 61.1768C166.599 59.0179 168.019 57.7914 169.495 57.7914C170.608 57.7914 171.221 58.3692 171.502 58.8962H171.527L171.578 57.9333H172.6V57.9232ZM171.389 60.4419C171.389 60.2443 171.374 60.072 171.323 59.9149C171.108 59.2408 170.542 58.6885 169.689 58.6885C168.575 58.6885 167.779 59.626 167.779 61.1007C167.779 62.3525 168.417 63.3914 169.679 63.3914C170.393 63.3914 171.047 62.9454 171.297 62.2055C171.364 62.0079 171.389 61.7849 171.389 61.5873V60.4419Z" fill="#403B4D"/>
<path d="M177.42 64.3036V58.8101H176.516V57.9283H177.42V57.6242C177.42 56.7272 177.62 55.9113 178.166 55.3994C178.605 54.9788 179.187 54.8065 179.734 54.8065C180.147 54.8065 180.505 54.8977 180.73 54.9889L180.571 55.8859C180.398 55.8049 180.158 55.739 179.826 55.739C178.83 55.739 178.58 56.6106 178.58 57.5837V57.9283H180.132V58.8101H178.58V64.3036H177.425H177.42Z" fill="#403B4D"/>
<path d="M186.817 61.0602C186.817 63.4168 185.173 64.4456 183.615 64.4456C181.874 64.4456 180.536 63.1786 180.536 61.1667C180.536 59.0331 181.945 57.7813 183.723 57.7813C185.5 57.7813 186.817 59.1142 186.817 61.0602ZM181.721 61.1261C181.721 62.5248 182.533 63.579 183.672 63.579C184.81 63.579 185.622 62.54 185.622 61.1008C185.622 60.0213 185.076 58.6479 183.697 58.6479C182.318 58.6479 181.721 59.9149 181.721 61.1261Z" fill="#403B4D"/>
<path d="M188.293 59.9149C188.293 59.1649 188.278 58.5162 188.242 57.9232H189.263L189.304 59.175H189.355C189.646 58.3185 190.351 57.7763 191.132 57.7763C191.265 57.7763 191.357 57.7915 191.464 57.8168V58.9115C191.347 58.8861 191.224 58.8709 191.066 58.8709C190.244 58.8709 189.657 59.4892 189.498 60.3609C189.473 60.518 189.447 60.7055 189.447 60.9031V64.3037H188.293V59.9149Z" fill="#403B4D"/>
<path d="M202.301 63.9084C201.786 64.0908 200.759 64.3949 199.554 64.3949C198.201 64.3949 197.082 64.0503 196.209 63.2242C195.438 62.4843 194.963 61.2984 194.963 59.9149C194.978 57.2644 196.806 55.3285 199.809 55.3285C200.846 55.3285 201.653 55.5515 202.041 55.739L201.76 56.6765C201.28 56.4637 200.682 56.2964 199.779 56.2964C197.603 56.2964 196.178 57.6394 196.178 59.8693C196.178 62.0991 197.547 63.4523 199.63 63.4523C200.386 63.4523 200.907 63.3458 201.173 63.2141V60.5636H199.355V59.6412H202.301V63.9084Z" fill="#403B4D"/>
<path d="M204.027 59.9149C204.027 59.1649 204.012 58.5162 203.976 57.9232H204.997L205.038 59.175H205.089C205.38 58.3185 206.085 57.7763 206.866 57.7763C206.999 57.7763 207.091 57.7915 207.198 57.8168V58.9115C207.081 58.8861 206.958 58.8709 206.8 58.8709C205.978 58.8709 205.39 59.4892 205.232 60.3609C205.207 60.518 205.181 60.7055 205.181 60.9031V64.3037H204.027V59.9149Z" fill="#403B4D"/>
<path d="M214.051 61.0602C214.051 63.4168 212.407 64.4456 210.849 64.4456C209.108 64.4456 207.77 63.1786 207.77 61.1667C207.77 59.0331 209.179 57.7813 210.956 57.7813C212.733 57.7813 214.051 59.1142 214.051 61.0602ZM208.954 61.1261C208.954 62.5248 209.766 63.579 210.905 63.579C212.044 63.579 212.856 62.54 212.856 61.1008C212.856 60.0213 212.31 58.6479 210.931 58.6479C209.552 58.6479 208.954 59.9149 208.954 61.1261Z" fill="#403B4D"/>
<path d="M220.905 62.5654C220.905 63.2242 220.92 63.8019 220.956 64.3036H219.919L219.853 63.2647H219.827C219.521 63.7766 218.847 64.4506 217.703 64.4506C216.692 64.4506 215.487 63.8982 215.487 61.6582V57.9283H216.656V61.4606C216.656 62.6718 217.029 63.4877 218.091 63.4877C218.872 63.4877 219.419 62.9454 219.633 62.4336C219.7 62.2613 219.741 62.0535 219.741 61.8407V57.9283H220.91V62.5654H220.905Z" fill="#403B4D"/>
<path d="M222.841 60.0061C222.841 59.1902 222.815 58.5314 222.79 57.9232H223.836L223.888 59.0179H223.913C224.393 58.2425 225.149 57.7813 226.196 57.7813C227.748 57.7813 228.918 59.0838 228.918 61.0248C228.918 63.3154 227.508 64.4506 225.997 64.4506C225.149 64.4506 224.403 64.0807 224.02 63.4472H223.995V66.9136H222.841V60.0112V60.0061ZM223.995 61.7089C223.995 61.8812 224.02 62.0383 224.046 62.1853C224.26 62.9911 224.96 63.5435 225.797 63.5435C227.033 63.5435 227.748 62.54 227.748 61.0805C227.748 59.8034 227.069 58.7088 225.838 58.7088C225.042 58.7088 224.296 59.2764 224.071 60.143C224.031 60.2899 223.99 60.4572 223.99 60.6193V61.714L223.995 61.7089Z" fill="#403B4D"/>
<path d="M230.235 63.1177C230.582 63.3407 231.19 63.5789 231.777 63.5789C232.625 63.5789 233.023 63.1583 233.023 62.6312C233.023 62.0788 232.691 61.7748 231.828 61.4606C230.674 61.0501 230.127 60.4216 230.127 59.6564C230.127 58.6276 230.965 57.7864 232.344 57.7864C232.992 57.7864 233.564 57.9688 233.922 58.1817L233.631 59.0229C233.38 58.8658 232.916 58.653 232.318 58.653C231.629 58.653 231.241 59.0483 231.241 59.5246C231.241 60.0517 231.624 60.2899 232.461 60.6041C233.574 61.0247 234.146 61.5771 234.146 62.5299C234.146 63.6499 233.268 64.4404 231.741 64.4404C231.036 64.4404 230.388 64.2681 229.933 64.0046L230.224 63.1228L230.235 63.1177Z" fill="#403B4D"/>
<path d="M47.8729 65.5717H0.130249V63.6148C0.141743 60.4702 1.39605 57.4576 3.61968 55.234C5.8433 53.0104 8.85589 51.756 12.0005 51.7446H59.7435V53.7011C59.6131 60.2234 54.3952 65.5717 47.8729 65.5717Z" fill="#3200AA"/>
<path d="M33.9152 10.9381H46.9596L36.5241 0.50313C35.7414 -0.279599 34.3065 -0.148976 33.7848 0.894494C32.2194 3.24243 30.5235 7.41605 33.9152 10.9381Z" fill="#DD149F"/>
<path d="M47.7432 11.7203C50.8877 11.7318 53.9005 12.986 56.124 15.2095C58.3477 17.4332 59.6019 20.4467 59.6133 23.5914V25.5474H11.8701C8.72552 25.5359 5.71284 24.2818 3.48926 22.0582C1.26574 19.8346 0.0114938 16.8219 0 13.6773V11.7203H47.7432ZM49.3076 17.0689L49.4375 21.5045L54.0039 21.3736C53.95 20.1809 53.425 19.0583 52.5449 18.2515C51.6647 17.4447 50.5006 17.0191 49.3076 17.0689ZM5.47949 14.7213C5.34912 14.4603 5.21803 14.3302 4.95703 14.4605C4.69648 14.5908 4.69629 14.7212 4.69629 14.982C5.06833 16.0701 5.69433 17.0543 6.52246 17.8521C8.08791 19.4173 10.5665 19.9385 13.958 19.8082C14.0598 19.8022 14.1564 19.7591 14.2285 19.6871C14.3004 19.6151 14.3435 19.5191 14.3496 19.4176C14.3572 19.3644 14.3519 19.3103 14.335 19.2594C14.318 19.2084 14.2899 19.1616 14.252 19.1236C14.214 19.0856 14.1672 19.0576 14.1162 19.0406C14.0653 19.0236 14.0111 19.0184 13.958 19.026C9.13158 19.2867 6.52296 17.9823 5.47949 14.7213ZM26.3496 19.8082H29.3496V16.8082H26.3496V19.8082ZM32.3496 19.8082H35.3506V16.8082H32.3496V19.8082ZM38.4805 19.8082H41.4814V16.8082H38.4805V19.8082Z" fill="#3200AA"/>
<path d="M43.2454 31.4663H7.2287C3.2364 31.4663 0 34.7027 0 38.695C0 42.6873 3.2364 45.9237 7.2287 45.9237H43.2454C47.2377 45.9237 50.4741 42.6873 50.4741 38.695C50.4741 34.7027 47.2377 31.4663 43.2454 31.4663Z" fill="#DD149F"/>
</svg>
