<svg width="189" height="63" viewBox="0 0 189 63" fill="none" xmlns="http://www.w3.org/2000/svg">
<rect x="0.5" y="0.5" width="187.16" height="61.7199" rx="9.5" fill="white"/>
<rect x="0.5" y="0.5" width="187.16" height="61.7199" rx="9.5" stroke="#BBBBBB"/>
<path d="M31.4076 30.3741L17.9914 44.8725C17.9927 44.875 17.9927 44.8789 17.9939 44.8814C18.406 46.4557 19.8173 47.6143 21.4932 47.6143C22.1636 47.6143 22.7924 47.4296 23.3317 47.1062L23.3745 47.0806L38.4755 38.2084L31.4076 30.3741Z" fill="#EA4335"/>
<path d="M44.98 27.9053L44.9674 27.8963L38.4477 24.0485L31.1026 30.7036L38.4742 38.2068L44.9586 34.3975C46.0952 33.7714 46.8677 32.5512 46.8677 31.145C46.8677 29.7465 46.1066 28.5327 44.98 27.9053Z" fill="#FBBC04"/>
<path d="M17.9912 17.3551C17.9105 17.6579 17.8677 17.9761 17.8677 18.3045V43.9243C17.8677 44.2527 17.9105 44.5709 17.9924 44.8724L31.8686 30.7449L17.9912 17.3551Z" fill="#4285F4"/>
<path d="M31.5068 31.1142L38.4499 24.0459L23.3665 15.1416C22.8184 14.8068 22.1783 14.6143 21.494 14.6143C19.8181 14.6143 18.4043 15.7755 17.9922 17.351C17.9922 17.3523 17.991 17.3536 17.991 17.3549L31.5068 31.1142Z" fill="#34A853"/>
<path d="M68.1281 19.2157C68.1281 20.3566 67.7896 21.2656 67.1126 21.9425C66.352 22.7488 65.3518 23.1519 64.112 23.1519C62.9254 23.1519 61.9214 22.7412 61.0999 21.9197C60.2784 21.0982 59.8677 20.0866 59.8677 18.8848C59.8677 17.683 60.2784 16.6714 61.0999 15.8499C61.9214 15.0284 62.9254 14.6177 64.112 14.6177C64.7129 14.6177 65.2795 14.7242 65.812 14.9371C66.3444 15.1501 66.7818 15.4506 67.1241 15.8385L66.371 16.5915C66.12 16.2873 65.793 16.0515 65.3898 15.8841C64.9943 15.7092 64.5684 15.6217 64.112 15.6217C63.222 15.6217 62.469 15.9298 61.8529 16.5459C61.2444 17.1696 60.9402 17.9492 60.9402 18.8848C60.9402 19.8204 61.2444 20.6 61.8529 21.2237C62.469 21.8398 63.222 22.1479 64.112 22.1479C64.9258 22.1479 65.6028 21.9197 66.1428 21.4633C66.6829 21.0069 66.9948 20.3794 67.0784 19.5808H64.112V18.5996H68.071C68.1091 18.8125 68.1281 19.0179 68.1281 19.2157Z" fill="black"/>
<path d="M74.1726 14.8002V15.8043H70.4531V18.3942H73.8075V19.3754H70.4531V21.9653H74.1726V22.9694H69.4034V14.8002H74.1726Z" fill="black"/>
<path d="M78.3711 15.8043V22.9694H77.3215V15.8043H75.0396V14.8002H80.653V15.8043H78.3711Z" fill="black"/>
<path d="M85.3054 22.9694H84.2557V14.8002H85.3054V22.9694Z" fill="black"/>
<path d="M89.736 15.8043V22.9694H88.6863V15.8043H86.4044V14.8002H92.0179V15.8043H89.736Z" fill="black"/>
<path d="M103.396 18.8848C103.396 20.0942 102.993 21.1058 102.186 21.9197C101.372 22.7412 100.376 23.1519 99.1971 23.1519C98.0105 23.1519 97.0141 22.7412 96.2078 21.9197C95.4015 21.1058 94.9984 20.0942 94.9984 18.8848C94.9984 17.6754 95.4015 16.6638 96.2078 15.8499C97.0141 15.0284 98.0105 14.6177 99.1971 14.6177C100.384 14.6177 101.38 15.0322 102.186 15.8613C102.993 16.6752 103.396 17.683 103.396 18.8848ZM96.0709 18.8848C96.0709 19.828 96.3675 20.6076 96.9608 21.2237C97.5617 21.8398 98.3071 22.1479 99.1971 22.1479C100.087 22.1479 100.829 21.8398 101.422 21.2237C102.023 20.6152 102.323 19.8356 102.323 18.8848C102.323 17.934 102.023 17.1544 101.422 16.5459C100.829 15.9298 100.087 15.6217 99.1971 15.6217C98.3071 15.6217 97.5617 15.9298 96.9608 16.5459C96.3675 17.162 96.0709 17.9416 96.0709 18.8848Z" fill="black"/>
<path d="M105.684 22.9694H104.634V14.8002H105.912L109.883 21.1553H109.928L109.883 19.5808V14.8002H110.932V22.9694H109.837L105.684 16.3063H105.638L105.684 17.8808V22.9694Z" fill="black"/>
<path d="M137.586 43.5686H139.787V28.6899H137.586V43.5686ZM157.409 34.0494L154.886 40.5003H154.811L152.193 34.0494H149.822L153.748 43.0652L151.511 48.0807H153.805L159.857 34.0494H157.409ZM144.928 41.8785C144.207 41.8785 143.202 41.5155 143.202 40.6145C143.202 39.4672 144.453 39.0268 145.535 39.0268C146.502 39.0268 146.958 39.2375 147.546 39.5243C147.375 40.9026 146.199 41.8785 144.928 41.8785ZM145.194 33.7244C143.6 33.7244 141.949 34.4326 141.267 36.0025L143.22 36.8249C143.638 36.0025 144.415 35.7335 145.231 35.7335C146.37 35.7335 147.527 36.4226 147.546 37.6486V37.8009C147.147 37.5712 146.294 37.2272 145.25 37.2272C143.145 37.2272 141.001 38.3948 141.001 40.5765C141.001 42.5677 142.727 43.8507 144.662 43.8507C146.142 43.8507 146.958 43.1806 147.47 42.3951H147.546V43.5436H149.67V37.839C149.67 35.1979 147.717 33.7244 145.194 33.7244ZM131.592 35.8609H128.462V30.7608H131.592C133.238 30.7608 134.172 32.1355 134.172 33.3103C134.172 34.4636 133.238 35.8609 131.592 35.8609ZM131.536 28.6899H126.262V43.5686H128.462V37.9318H131.536C133.975 37.9318 136.373 36.1489 136.373 33.3103C136.373 30.4716 133.975 28.6899 131.536 28.6899ZM102.78 41.8809C101.259 41.8809 99.9866 40.5967 99.9866 38.8328C99.9866 37.0499 101.259 35.7454 102.78 35.7454C104.281 35.7454 105.458 37.0499 105.458 38.8328C105.458 40.5967 104.281 41.8809 102.78 41.8809ZM105.307 34.8825H105.23C104.736 34.2886 103.787 33.7518 102.59 33.7518C100.081 33.7518 97.7822 35.9751 97.7822 38.8328C97.7822 41.6703 100.081 43.8757 102.59 43.8757C103.787 43.8757 104.736 43.3389 105.23 42.7248H105.307V43.4544C105.307 45.3908 104.281 46.4263 102.627 46.4263C101.278 46.4263 100.442 45.448 100.1 44.6232L98.1809 45.4289C98.7317 46.7715 100.195 48.4199 102.627 48.4199C105.212 48.4199 107.397 46.8857 107.397 43.1473V34.0577H105.307V34.8825ZM108.917 43.5686H111.122V28.6887H108.917V43.5686ZM114.37 38.6602C114.313 36.7047 115.871 35.7073 116.992 35.7073C117.867 35.7073 118.608 36.1477 118.854 36.7809L114.37 38.6602ZM121.211 36.9725C120.793 35.8418 119.519 33.7518 116.916 33.7518C114.332 33.7518 112.186 35.8025 112.186 38.8138C112.186 41.6512 114.313 43.8757 117.163 43.8757C119.463 43.8757 120.793 42.457 121.344 41.6322L119.634 40.4812C119.064 41.3251 118.285 41.8809 117.163 41.8809C116.042 41.8809 115.244 41.3632 114.731 40.3479L121.438 37.5474L121.211 36.9725ZM67.7723 35.305V37.4522H72.864C72.7119 38.6602 72.3132 39.5422 71.7058 40.1551C70.9639 40.9038 69.8045 41.7286 67.7723 41.7286C64.6362 41.7286 62.1853 39.178 62.1853 36.0144C62.1853 32.8496 64.6362 30.3002 67.7723 30.3002C69.4637 30.3002 70.6986 30.9715 71.6103 31.8344L73.1117 30.3193C71.8379 29.0922 70.1477 28.1519 67.7723 28.1519C63.478 28.1519 59.8677 31.6809 59.8677 36.0144C59.8677 40.3479 63.478 43.8757 67.7723 43.8757C70.09 43.8757 71.8379 43.108 73.2061 41.6703C74.6131 40.2515 75.0495 38.2579 75.0495 36.6464C75.0495 36.1477 75.0118 35.6883 74.9351 35.305H67.7723ZM80.8395 41.8809C79.3191 41.8809 78.0076 40.6157 78.0076 38.8138C78.0076 36.9916 79.3191 35.7454 80.8395 35.7454C82.3586 35.7454 83.6701 36.9916 83.6701 38.8138C83.6701 40.6157 82.3586 41.8809 80.8395 41.8809ZM80.8395 33.7518C78.0642 33.7518 75.8032 35.8799 75.8032 38.8138C75.8032 41.7286 78.0642 43.8757 80.8395 43.8757C83.6135 43.8757 85.8745 41.7286 85.8745 38.8138C85.8745 35.8799 83.6135 33.7518 80.8395 33.7518ZM91.8237 41.8809C90.3034 41.8809 88.9918 40.6157 88.9918 38.8138C88.9918 36.9916 90.3034 35.7454 91.8237 35.7454C93.344 35.7454 94.6543 36.9916 94.6543 38.8138C94.6543 40.6157 93.344 41.8809 91.8237 41.8809ZM91.8237 33.7518C89.0496 33.7518 86.7886 35.8799 86.7886 38.8138C86.7886 41.7286 89.0496 43.8757 91.8237 43.8757C94.5977 43.8757 96.8587 41.7286 96.8587 38.8138C96.8587 35.8799 94.5977 33.7518 91.8237 33.7518Z" fill="black"/>
</svg>
