<svg width="37" height="32" viewBox="0 0 37 32" fill="none" xmlns="http://www.w3.org/2000/svg">
<path d="M9.95085 8.10699C5.78156 6.45774 0.385988 5.19042 0.0181097 6.07581C-0.332251 6.97855 4.46771 9.70415 8.637 11.3534C9.02239 11.5096 9.39024 11.6485 9.75812 11.7874C9.96834 12.3603 10.4238 13.5755 11.0019 15.1033C10.9844 15.1033 10.9844 15.0685 10.9494 15.0512L9.82821 14.6172C9.68806 14.5651 9.53042 14.6519 9.46034 14.8081L9.02239 15.8845C8.95232 16.0407 9.02237 16.2143 9.16251 16.2664L10.2837 16.7004C10.2837 16.7004 10.4063 16.7004 10.4764 16.7004L11.7727 17.2212C12.2632 18.5233 12.7887 19.9468 13.3143 21.3357L12.2107 20.9017C12.0705 20.8496 11.9128 20.9364 11.8428 21.0926L11.4048 22.169C11.3347 22.3252 11.4048 22.4988 11.545 22.5509L12.6661 22.9849C12.6661 22.9849 12.7888 22.9849 12.8588 22.9849L14.1201 23.4884C15.469 27.0473 16.6077 30.0159 16.6778 30.0854C16.8705 30.2763 18.5522 30.8666 18.5522 30.8666C18.9376 31.0228 19.2704 31.1096 19.2879 31.0576C19.2879 31.0228 18.885 30.8145 18.5171 30.6583L17.2909 23.4363C17.6062 23.5405 17.869 23.5578 17.8865 23.4884C17.9215 23.3842 17.6412 23.1933 17.2558 23.037H17.2208L16.9756 21.5961C17.2734 21.6829 17.5186 21.7176 17.5537 21.6308C17.5887 21.5267 17.3084 21.3357 16.923 21.1794L16.6953 19.8774L16.8004 18.9747C17.1508 19.0962 17.4661 19.1483 17.5011 19.0441C17.5361 18.9399 17.2558 18.749 16.8704 18.5927H16.8529L17.0456 16.7699C17.396 16.8914 17.6938 16.9261 17.7288 16.8393C17.7639 16.7352 17.4836 16.5442 17.0982 16.3879H17.0807L17.2558 14.7213C20.0762 15.7977 21.1974 16.197 23.2645 17.0129C25.3492 17.8289 27.4163 18.4712 29.2031 18.9399C29.9389 20.867 31.3754 24.7383 31.3754 24.7383L32.5141 25.2939L33.3023 19.7906C33.7052 19.8427 34.0381 19.86 34.2833 19.86C35.1768 20.1378 35.7373 20.2767 35.7724 20.2073C35.8074 20.1205 35.3169 19.8427 34.5111 19.4608C34.3359 19.3045 34.0556 19.0962 33.6702 18.8531L36.9286 14.27L35.7198 13.9054C35.7198 13.9054 31.7607 15.8671 29.9564 16.7352C28.3973 15.9019 26.5579 14.9817 24.6134 14.0443C22.0207 13.02 20.8996 12.5513 18.5347 11.5791L19.5507 10.2597C19.9361 10.4159 20.2864 10.468 20.3215 10.3639C20.3565 10.277 20.1113 10.1034 19.7609 9.9472L20.8821 8.48892H20.8996C21.285 8.64516 21.6354 8.69724 21.6704 8.59308C21.7054 8.50628 21.4602 8.31531 21.1098 8.17643L21.6704 7.44729L22.739 6.6487C23.1244 6.80495 23.4747 6.85703 23.5098 6.75287C23.5448 6.66607 23.3521 6.52718 23.0718 6.3883L24.2456 5.52027H24.2806C24.666 5.69388 25.0163 5.7286 25.0514 5.6418C25.0864 5.55499 24.8762 5.39875 24.5784 5.25986L30.482 0.850298C30.8498 0.989182 31.3053 1.12807 31.3228 1.09335C31.3403 1.04126 31.0425 0.885019 30.6571 0.728775C30.6571 0.728775 29.0455 -0.000366211 28.7652 -0.000366211C28.6601 -0.000366211 25.7696 1.38847 22.3361 3.05508L21.0748 2.55163C21.0748 2.55163 21.0047 2.4301 20.9522 2.41274L19.831 1.97873C19.6908 1.92665 19.5332 2.01345 19.4631 2.1697L19.0252 3.24605C18.9551 3.40229 19.0252 3.5759 19.1653 3.62798L20.2689 4.06199C18.92 4.72169 17.5537 5.38139 16.2924 6.00637L14.996 5.48555C14.996 5.48555 14.926 5.36403 14.8734 5.34667L13.7522 4.91265C13.6121 4.86057 13.4544 4.94738 13.3844 5.10362L12.9464 6.17997C12.8763 6.33622 12.9464 6.50982 13.0866 6.5619L14.2077 6.99592C14.2077 6.99592 14.2603 6.99592 14.2778 6.99592C12.8238 7.7077 11.6676 8.28059 11.107 8.55836C10.7392 8.41948 10.3713 8.26323 9.98586 8.10699H9.95085Z" fill="#DD149F"/>
</svg>
