<svg width="120" height="206" viewBox="0 0 120 206" fill="none" xmlns="http://www.w3.org/2000/svg">
<path d="M30.7806 19.2716C29.4142 18.3342 28.0303 17.3967 26.6289 16.4766C26.2435 16.2162 26.1208 15.6954 26.3836 15.3134C26.6463 14.9315 27.1719 14.81 27.5573 15.0704C28.9763 15.9905 30.3777 16.928 31.7441 17.8828C32.1295 18.1432 32.2346 18.6814 31.9543 19.0633C31.7967 19.3063 31.5164 19.4279 31.2536 19.4279C31.0784 19.4279 30.9207 19.3758 30.7631 19.2716H30.7806ZM23.3179 12.3448C21.899 11.4594 20.4625 10.574 19.0085 9.70599C18.6056 9.46295 18.0801 9.58447 17.8348 10.0011C17.5896 10.4004 17.7297 10.9212 18.1326 11.1643C19.5691 12.0323 21.0056 12.9003 22.407 13.7857C22.5471 13.8725 22.7048 13.9246 22.8625 13.9246C23.1428 13.9246 23.4231 13.7857 23.5807 13.5253C23.826 13.126 23.7208 12.6052 23.3179 12.3621V12.3448ZM54.9555 38.0731C55.1832 38.0731 55.4109 37.9862 55.5861 37.7953C55.9015 37.4481 55.8839 36.9099 55.5336 36.5974C54.2898 35.4863 53.0285 34.3753 51.7497 33.2642C51.3993 32.9517 50.8563 33.0038 50.5409 33.351C50.2256 33.6982 50.2781 34.2364 50.6285 34.5489C51.9073 35.6426 53.1511 36.7537 54.3774 37.8647C54.535 38.021 54.7452 38.0904 54.9555 38.0904V38.0731ZM48.4213 191.054C47.0373 190.186 45.6359 189.283 44.217 188.346C43.8316 188.085 43.306 188.189 43.0257 188.571C42.7629 188.953 42.868 189.474 43.2534 189.752C44.6899 190.707 46.1089 191.627 47.4928 192.495C47.633 192.581 47.7906 192.616 47.9482 192.616C48.2285 192.616 48.5088 192.477 48.6665 192.217C48.9117 191.818 48.7891 191.297 48.4037 191.054H48.4213ZM14.6465 7.18872C13.1925 6.35542 11.721 5.53947 10.232 4.74089C9.81153 4.5152 9.30356 4.67145 9.07582 5.07074C8.84809 5.48739 9.0057 5.99085 9.40862 6.21653C10.8801 7.01512 12.3516 7.83106 13.7881 8.647C13.9283 8.71644 14.0684 8.75116 14.2086 8.75116C14.5064 8.75116 14.7867 8.59492 14.9443 8.33451C15.1721 7.93522 15.0319 7.41441 14.629 7.18872H14.6465ZM47.3352 31.5281C47.5804 31.5281 47.8257 31.424 47.9833 31.2157C48.2811 30.8511 48.2286 30.3303 47.8782 30.0351C46.5819 28.9761 45.2855 27.9172 43.9541 26.8755C43.5863 26.5978 43.0432 26.6498 42.7629 27.0144C42.4651 27.379 42.5352 27.9172 42.9031 28.1949C44.217 29.2366 45.5133 30.2782 46.8096 31.3372C46.9672 31.4761 47.1599 31.5281 47.3526 31.5281H47.3352ZM36.071 182.53C35.7032 182.252 35.1601 182.321 34.8798 182.686C34.5995 183.051 34.6696 183.589 35.0375 183.867C36.4039 184.908 37.7703 185.898 39.1017 186.853C39.2593 186.957 39.4345 187.009 39.5922 187.009C39.8549 187.009 40.1177 186.887 40.2754 186.662C40.5557 186.28 40.4681 185.759 40.0827 185.481C38.7513 184.526 37.4024 183.537 36.0536 182.512L36.071 182.53ZM38.909 25.1395C39.0667 25.261 39.2418 25.3131 39.417 25.3131C39.6798 25.3131 39.925 25.1916 40.1002 24.9832C40.3805 24.6187 40.3104 24.0805 39.9426 23.8027C38.6112 22.7958 37.2448 21.8063 35.8784 20.8167C35.5105 20.5389 34.9674 20.6257 34.6871 21.0077C34.4069 21.3896 34.4944 21.9104 34.8798 22.1882C36.2462 23.1604 37.5951 24.1499 38.909 25.1568V25.1395ZM28.223 176.297C27.8551 176.002 27.3296 176.037 27.0143 176.402C26.7164 176.766 26.7515 177.287 27.1194 177.599C28.4332 178.693 29.7471 179.752 31.0259 180.776C31.1836 180.898 31.3762 180.967 31.5514 180.967C31.7967 180.967 32.0419 180.863 32.2171 180.655C32.5149 180.29 32.4448 179.752 32.0769 179.474C30.7981 178.45 29.5018 177.408 28.1879 176.315L28.223 176.297ZM114.587 133.677C114.99 135.309 115.358 136.924 115.69 138.521C115.778 138.92 116.128 139.198 116.531 139.198C116.584 139.198 116.654 139.198 116.706 139.198C117.162 139.111 117.46 138.66 117.372 138.208C117.039 136.594 116.671 134.945 116.268 133.295C116.163 132.844 115.708 132.566 115.235 132.67C114.779 132.775 114.499 133.243 114.604 133.695L114.587 133.677ZM116.601 143.417C116.882 145.066 117.109 146.715 117.32 148.33C117.372 148.764 117.74 149.076 118.16 149.076C118.196 149.076 118.231 149.076 118.266 149.076C118.739 149.024 119.071 148.607 119.001 148.139C118.809 146.489 118.563 144.84 118.283 143.156C118.213 142.705 117.758 142.375 117.302 142.462C116.829 142.531 116.531 142.965 116.601 143.434V143.417ZM5.74736 2.3625C4.25833 1.59864 2.7518 0.834776 1.22774 0.0882746C0.807303 -0.120051 0.299291 0.0535541 0.0890752 0.470206C-0.121141 0.886858 0.0540413 1.39031 0.474474 1.59864C1.98102 2.34514 3.48757 3.09164 4.95908 3.8555C5.08171 3.92495 5.22185 3.94231 5.34448 3.94231C5.64229 3.94231 5.94008 3.7687 6.09774 3.49093C6.30796 3.07428 6.15031 2.57083 5.72988 2.34514L5.74736 2.3625ZM111.889 124.094C112.397 125.691 112.87 127.289 113.325 128.868C113.431 129.233 113.781 129.476 114.149 129.476C114.219 129.476 114.307 129.476 114.377 129.441C114.832 129.32 115.095 128.851 114.972 128.4C114.517 126.803 114.044 125.205 113.518 123.591C113.378 123.14 112.905 122.896 112.45 123.035C111.994 123.174 111.749 123.643 111.889 124.094ZM117.81 153.26C117.933 154.927 118.02 156.593 118.073 158.208C118.073 158.659 118.458 159.024 118.931 159.024H118.949C119.422 159.024 119.79 158.624 119.772 158.156C119.72 156.506 119.632 154.822 119.509 153.121C119.474 152.652 119.054 152.305 118.598 152.34C118.125 152.375 117.775 152.774 117.81 153.243V153.26ZM110.295 119.39C110.418 119.737 110.75 119.963 111.101 119.963C111.188 119.963 111.293 119.963 111.381 119.91C111.819 119.754 112.064 119.268 111.907 118.834C111.363 117.272 110.768 115.692 110.155 114.112C109.98 113.678 109.489 113.452 109.051 113.626C108.613 113.8 108.385 114.286 108.561 114.72C109.174 116.282 109.734 117.845 110.295 119.39ZM92.8995 83.5923C93.0571 83.8527 93.3374 83.9916 93.6177 83.9916C93.7754 83.9916 93.9331 83.9568 94.0732 83.87C94.4761 83.627 94.5987 83.1062 94.3535 82.7069C93.4776 81.3007 92.5666 79.8771 91.6382 78.4709C91.3754 78.0716 90.8499 77.9675 90.4645 78.2279C90.0616 78.4883 89.9564 79.0091 90.2192 79.391C91.1477 80.7972 92.0411 82.1861 92.917 83.5923H92.8995ZM102.587 101.04C102.727 101.335 103.042 101.508 103.358 101.508C103.48 101.508 103.603 101.474 103.726 101.422C104.146 101.213 104.321 100.71 104.129 100.293C103.393 98.8001 102.639 97.3071 101.869 95.7967C101.658 95.3801 101.133 95.2238 100.713 95.4321C100.292 95.6405 100.134 96.1613 100.345 96.5779C101.115 98.0709 101.869 99.5466 102.587 101.022V101.04ZM85.5069 204.23C83.9127 204.23 82.266 204.109 80.5843 203.901C80.1288 203.848 79.6909 204.178 79.6384 204.63C79.5858 205.098 79.9186 205.515 80.3741 205.567C82.1259 205.775 83.8427 205.897 85.5069 205.897C85.9799 205.897 86.3653 205.515 86.3653 205.064C86.3653 204.595 85.9974 204.213 85.5244 204.213L85.5069 204.23ZM57.1102 196.019C55.6737 195.272 54.2022 194.474 52.7307 193.623C52.3278 193.397 51.8022 193.536 51.5745 193.936C51.3468 194.335 51.4869 194.856 51.8898 195.081C53.3963 195.949 54.8854 196.748 56.3394 197.512C56.462 197.581 56.6022 197.599 56.7248 197.599C57.0226 197.599 57.3204 197.425 57.478 197.147C57.6883 196.731 57.5306 196.227 57.1102 196.002V196.019ZM103.831 198.467C102.534 199.456 101.168 200.324 99.714 201.071C99.2936 201.279 99.1359 201.8 99.3461 202.217C99.5038 202.512 99.8016 202.668 100.099 202.668C100.24 202.668 100.362 202.633 100.485 202.581C102.009 201.8 103.498 200.862 104.864 199.821C105.232 199.543 105.302 199.005 105.022 198.64C104.724 198.276 104.199 198.206 103.831 198.484V198.467ZM107.825 110.571C108.263 110.397 108.473 109.893 108.28 109.459C107.632 107.932 106.966 106.387 106.266 104.859C106.073 104.442 105.565 104.251 105.145 104.442C104.707 104.633 104.531 105.137 104.724 105.553C105.425 107.081 106.091 108.591 106.721 110.119C106.861 110.449 107.177 110.64 107.509 110.64C107.615 110.64 107.737 110.623 107.842 110.571H107.825ZM99.4687 91.3871C98.6629 89.9289 97.822 88.4706 96.9637 87.0123C96.7359 86.613 96.2104 86.4741 95.8075 86.7172C95.4045 86.9602 95.2644 87.4637 95.5097 87.863C96.3681 89.3039 97.1914 90.7448 97.9797 92.2031C98.1374 92.4809 98.4177 92.6371 98.733 92.6371C98.8731 92.6371 99.0133 92.6024 99.1359 92.5329C99.5563 92.3073 99.6965 91.7864 99.4687 91.3871ZM115.848 182.044C115.393 181.887 114.92 182.113 114.762 182.564C114.201 184.144 113.571 185.655 112.87 187.096C112.66 187.512 112.835 188.016 113.273 188.224C113.396 188.276 113.518 188.311 113.641 188.311C113.956 188.311 114.254 188.137 114.412 187.842C115.147 186.349 115.796 184.769 116.374 183.137C116.531 182.703 116.304 182.217 115.848 182.061V182.044ZM118.966 162.357C118.458 162.34 118.108 162.704 118.09 163.173C118.038 164.857 117.95 166.506 117.793 168.103C117.758 168.572 118.09 168.971 118.563 169.023C118.581 169.023 118.616 169.023 118.633 169.023C119.071 169.023 119.439 168.693 119.474 168.259C119.632 166.628 119.72 164.926 119.772 163.225C119.772 162.756 119.422 162.374 118.949 162.357H118.966ZM95.2119 202.876C93.6878 203.345 92.0761 203.692 90.4294 203.918C89.9564 203.987 89.6411 204.404 89.6937 204.873C89.7462 205.289 90.1141 205.602 90.5346 205.602C90.5696 205.602 90.6046 205.602 90.6572 205.602C92.3914 205.359 94.1082 204.994 95.7199 204.508C96.1754 204.369 96.4206 203.901 96.2805 203.449C96.1403 202.998 95.6673 202.755 95.2119 202.894V202.876ZM118.16 172.304C117.705 172.235 117.25 172.547 117.179 172.999C116.917 174.648 116.566 176.28 116.181 177.825C116.058 178.276 116.339 178.728 116.794 178.849C116.864 178.849 116.934 178.867 117.004 178.867C117.39 178.867 117.74 178.606 117.828 178.224C118.231 176.627 118.563 174.961 118.844 173.259C118.914 172.791 118.598 172.357 118.143 172.287L118.16 172.304ZM111.626 191.071C111.241 190.811 110.698 190.915 110.453 191.314C109.542 192.686 108.526 193.988 107.457 195.151C107.142 195.498 107.159 196.036 107.509 196.349C107.667 196.488 107.877 196.574 108.088 196.574C108.315 196.574 108.543 196.488 108.718 196.297C109.857 195.064 110.925 193.693 111.889 192.252C112.152 191.87 112.047 191.332 111.644 191.089L111.626 191.071ZM69.9158 50.7462C68.7772 49.5136 67.621 48.2984 66.4473 47.0831C66.1145 46.7533 65.5889 46.7359 65.2386 47.0658C64.9057 47.3956 64.8882 47.9165 65.221 48.2637C66.3947 49.4615 67.5334 50.6768 68.6545 51.892C68.8297 52.0656 69.0575 52.1698 69.2852 52.1698C69.4954 52.1698 69.7056 52.1003 69.8633 51.9441C70.2137 51.6316 70.2312 51.0934 69.9158 50.7462ZM66.2196 200.099C64.713 199.508 63.1714 198.866 61.6299 198.172C61.2094 197.981 60.7014 198.172 60.4911 198.588C60.2984 199.005 60.4912 199.508 60.9116 199.699C62.4882 200.411 64.0648 201.071 65.6064 201.678C65.7115 201.713 65.8166 201.73 65.9217 201.73C66.2546 201.73 66.5874 201.522 66.7101 201.192C66.8853 200.758 66.6575 200.272 66.2196 200.099ZM62.2955 44.9478C62.5057 44.9478 62.7334 44.861 62.8911 44.7048C63.2239 44.3749 63.2239 43.8367 62.8911 43.5069C61.6999 42.3264 60.4912 41.1632 59.2649 40.0001C58.9321 39.6702 58.389 39.6876 58.0562 40.0348C57.7233 40.3646 57.7408 40.9028 58.0912 41.2327C59.3174 42.3785 60.5087 43.5416 61.6999 44.7048C61.8576 44.861 62.0853 44.9478 62.2955 44.9478ZM85.9273 70.1726C85.647 69.7907 85.1215 69.7039 84.7361 69.9817C84.3507 70.2594 84.2631 70.7802 84.5434 71.1622C85.5244 72.5163 86.5054 73.8704 87.4339 75.2245C87.5915 75.4676 87.8718 75.5891 88.1346 75.5891C88.3097 75.5891 88.4674 75.537 88.6251 75.4328C89.0105 75.1724 89.1156 74.6343 88.8353 74.2523C87.8894 72.8809 86.9083 71.5094 85.9098 70.1553L85.9273 70.1726ZM82.231 67.4991C82.4062 67.4991 82.5989 67.447 82.739 67.3255C83.1069 67.0477 83.1945 66.5095 82.8967 66.145C81.8807 64.8256 80.8471 63.5062 79.7785 62.1868C79.4807 61.8222 78.9552 61.7701 78.5873 62.0479C78.2194 62.343 78.1668 62.8638 78.4471 63.2284C79.4982 64.5304 80.5318 65.8498 81.5303 67.1519C81.7055 67.3776 81.9508 67.4817 82.2135 67.4817L82.231 67.4991ZM75.7318 203.033C74.1727 202.685 72.5611 202.251 70.9319 201.748C70.4764 201.609 70.0034 201.852 69.8633 202.303C69.7232 202.755 69.9684 203.223 70.4239 203.362C72.0881 203.883 73.7523 204.317 75.364 204.682C75.434 204.682 75.4866 204.699 75.5566 204.699C75.942 204.699 76.2924 204.439 76.38 204.039C76.4851 203.588 76.1873 203.137 75.7318 203.033ZM73.2968 54.4787C72.9815 54.1315 72.4384 54.0968 72.0881 54.4093C71.7377 54.7218 71.7027 55.2426 72.018 55.6072C73.1217 56.8571 74.2253 58.1244 75.2939 59.3917C75.4691 59.6001 75.6968 59.6869 75.942 59.6869C76.1347 59.6869 76.3274 59.6174 76.4851 59.4959C76.853 59.2008 76.888 58.6626 76.5902 58.298C75.5216 57.0133 74.418 55.746 73.2968 54.4787Z" fill="#DD149F"/>
</svg>
